<?xml version="1.0" encoding="UTF-8"?>
<!DOCTYPE svg PUBLIC "-//W3C//DTD SVG 1.1//EN" "http://www.w3.org/Graphics/SVG/1.1/DTD/svg11.dtd">
<!-- Creator: CorelDRAW -->
<svg xmlns="http://www.w3.org/2000/svg" xml:space="preserve" width="41.3081mm" height="4.7001mm" style="shape-rendering:geometricPrecision; text-rendering:geometricPrecision; image-rendering:optimizeQuality; fill-rule:evenodd; clip-rule:evenodd"
viewBox="0 0 41.3082 4.70011"
 xmlns:xlink="http://www.w3.org/1999/xlink">
 <defs>
  <style type="text/css">
   <![CDATA[
    .fil1 {fill:#2B2A29}
    .fil2 {fill:#2B2A29;fill-rule:nonzero}
    .fil0 {fill:#9D9E9E;fill-rule:nonzero}
   ]]>
  </style>
 </defs>
 <g id="Layer_x0020_1">
  <metadata id="CorelCorpID_0Corel-Layer"/>
  <g id="_446448688">
   <g id="_283828312">
    <g>
     <path id="_283849336" class="fil0" d="M4.49381 0.0433001l-0.0756002 0 0 -0.00220001 0.0002 -0.00230001 0.0002 -0.002 0.000400001 -0.00220001 0.000400001 -0.00210001 0.000500001 -0.002 0.000600001 -0.00210001 0.000700002 -0.0019 0.000700002 -0.002 0.000900002 -0.0018 0.000900002 -0.0018 0.001 -0.0017 0.001 -0.0018 0.0012 -0.0016 0.0011 -0.0016 0.0013 -0.0015 0.0013 -0.0014 0.0014 -0.0013 0.0014 -0.0014 0.0015 -0.0011 0.0015 -0.0012 0.0016 -0.001 0.0016 -0.001 0.0017 -0.000800002 0.0017 -0.000800002 0.0018 -0.000700002 0.0018 -0.000600001 0.0018 -0.000500001 0.0019 -0.000400001 0.0018 -0.0002 0.002 -0.000300001 0.0019 0 0.0019 0 0.002 0.000300001 0.0018 0.0002 0.0019 0.000400001 0.0018 0.000500001 0.0018 0.000600001 0.0018 0.000700002 0.0017 0.000800002 0.0017 0.000800002 0.0016 0.001 0.0016 0.001 0.0015 0.0012 0.0015 0.0011 0.0014 0.0014 0.0014 0.0013 0.0013 0.0014 0.0013 0.0015 0.0011 0.0016 0.0012 0.0016 0.001 0.0018 0.001 0.0017 0.000900002 0.0018 0.000900002 0.0018 0.000700002 0.002 0.000700002 0.0019 0.000600001 0.00210001 0.000500001 0.002 0.000400001 0.00210001 0.000400001 0.00220001 0.0002 0.002 0.0002 0.00230001 0 0.00220001zm-0.0756002 4.61351l0 -4.61351 0.0756002 0 0 4.61351 -0.0756002 0zm0 0l0.0756002 0 0 0.00220001 -0.0002 0.00220001 -0.0002 0.00210001 -0.000400001 0.00220001 -0.000400001 0.002 -0.000500001 0.00210001 -0.000600001 0.00210001 -0.000700002 0.0019 -0.000700002 0.002 -0.000900002 0.0018 -0.000900002 0.0018 -0.001 0.0017 -0.001 0.0018 -0.0012 0.0016 -0.0011 0.0016 -0.0013 0.0014 -0.0013 0.0015 -0.0014 0.0013 -0.0014 0.0014 -0.0015 0.0011 -0.0015 0.0012 -0.0016 0.001 -0.0016 0.001 -0.0017 0.000800002 -0.0017 0.000800002 -0.0018 0.000700002 -0.0018 0.000600001 -0.0018 0.000400001 -0.0019 0.000500001 -0.0018 0.0002 -0.002 0.000300001 -0.0019 0 -0.0019 0 -0.002 -0.000300001 -0.0018 -0.0002 -0.0019 -0.000500001 -0.0018 -0.000400001 -0.0018 -0.000600001 -0.0018 -0.000700002 -0.0017 -0.000800002 -0.0017 -0.000800002 -0.0016 -0.001 -0.0016 -0.001 -0.0015 -0.0012 -0.0015 -0.0011 -0.0014 -0.0014 -0.0014 -0.0013 -0.0013 -0.0015 -0.0013 -0.0014 -0.0011 -0.0016 -0.0012 -0.0016 -0.001 -0.0018 -0.001 -0.0017 -0.000900002 -0.0018 -0.000900002 -0.0018 -0.000700002 -0.002 -0.000700002 -0.0019 -0.000600001 -0.00210001 -0.000500001 -0.00210001 -0.000400001 -0.002 -0.000400001 -0.00220001 -0.0002 -0.00210001 -0.0002 -0.00220001 0 -0.00220001z"/>
    </g>
    <g>
     <path id="_283848976" class="fil0" d="M4.93811 0.0433001l-0.0756002 0 0 -0.00220001 0.0002 -0.00230001 0.0002 -0.002 0.000400001 -0.00220001 0.000400001 -0.00210001 0.000500001 -0.002 0.000600001 -0.00210001 0.000700002 -0.0019 0.000700002 -0.002 0.000900002 -0.0018 0.000900002 -0.0018 0.001 -0.0017 0.001 -0.0018 0.0012 -0.0016 0.0011 -0.0016 0.0013 -0.0015 0.0013 -0.0014 0.0014 -0.0013 0.0014 -0.0014 0.0015 -0.0011 0.0015 -0.0012 0.0016 -0.001 0.0016 -0.001 0.0017 -0.000800002 0.0017 -0.000800002 0.0018 -0.000700002 0.0018 -0.000600001 0.0018 -0.000500001 0.0019 -0.000400001 0.0018 -0.0002 0.002 -0.000300001 0.0019 0 0.0019 0 0.002 0.000300001 0.0018 0.0002 0.0019 0.000400001 0.0018 0.000500001 0.0018 0.000600001 0.0018 0.000700002 0.0017 0.000800002 0.0017 0.000800002 0.0016 0.001 0.0016 0.001 0.0015 0.0012 0.0015 0.0011 0.0014 0.0014 0.0014 0.0013 0.0013 0.0014 0.0013 0.0015 0.0011 0.0016 0.0012 0.0016 0.001 0.0018 0.001 0.0017 0.000900002 0.0018 0.000900002 0.0018 0.000700002 0.002 0.000700002 0.0019 0.000600001 0.00210001 0.000500001 0.002 0.000400001 0.00210001 0.000400001 0.00220001 0.0002 0.002 0.0002 0.00230001 0 0.00220001zm-0.0756002 4.61351l0 -4.61351 0.0756002 0 0 4.61351 -0.0756002 0zm0 0l0.0756002 0 0 0.00220001 -0.0002 0.00220001 -0.0002 0.00210001 -0.000400001 0.00220001 -0.000400001 0.002 -0.000500001 0.00210001 -0.000600001 0.00210001 -0.000700002 0.0019 -0.000700002 0.002 -0.000900002 0.0018 -0.000900002 0.0018 -0.001 0.0017 -0.001 0.0018 -0.0012 0.0016 -0.0011 0.0016 -0.0013 0.0014 -0.0013 0.0015 -0.0014 0.0013 -0.0014 0.0014 -0.0015 0.0011 -0.0015 0.0012 -0.0016 0.001 -0.0016 0.001 -0.0017 0.000800002 -0.0017 0.000800002 -0.0018 0.000700002 -0.0018 0.000600001 -0.0018 0.000400001 -0.0019 0.000500001 -0.0018 0.0002 -0.002 0.000300001 -0.0019 0 -0.0019 0 -0.002 -0.000300001 -0.0018 -0.0002 -0.0019 -0.000500001 -0.0018 -0.000400001 -0.0018 -0.000600001 -0.0018 -0.000700002 -0.0017 -0.000800002 -0.0017 -0.000800002 -0.0016 -0.001 -0.0016 -0.001 -0.0015 -0.0012 -0.0015 -0.0011 -0.0014 -0.0014 -0.0014 -0.0013 -0.0013 -0.0015 -0.0013 -0.0014 -0.0011 -0.0016 -0.0012 -0.0016 -0.001 -0.0018 -0.001 -0.0017 -0.000900002 -0.0018 -0.000900002 -0.0018 -0.000700002 -0.002 -0.000700002 -0.0019 -0.000600001 -0.00210001 -0.000500001 -0.00210001 -0.000400001 -0.002 -0.000400001 -0.00220001 -0.0002 -0.00210001 -0.0002 -0.00220001 0 -0.00220001z"/>
    </g>
   </g>
   <path id="_1217268584" class="fil1" d="M1.7482 1.9652c0.0915002,0 0.1659,0.0698002 0.1659,0.1553 0,0.0856002 -0.0744002,0.1554 -0.1659,0.1554 -0.0913002,0 -0.1659,-0.0698002 -0.1659,-0.1554 0,-0.0855002 0.0746002,-0.1553 0.1659,-0.1553zm0.0117 0.677402c0.251101,0 0.358301,-0.1541 0.358301,-0.307301l0 -0.610801 -0.1313 0 0 0.570101c0,0.1831 -0.1192,0.235901 -0.239501,0.235901 -0.1196,0 -0.238901,-0.0511001 -0.238901,-0.235901l0 -0.570101 -0.1313 0 0 0.610801c0,0.1519 0.1073,0.307301 0.358301,0.307301 0.00730002,0 0.0171,0 0.0244001,0zm-0.683702 1.4859c0,0.0569001 -0.0212001,0.1033 -0.0637002,0.1395 -0.0425001,0.0352001 -0.0950002,0.0527001 -0.1572,0.0527001 -0.0144,0 -0.0315001,-0.0013 -0.0513001,-0.00420001 -0.0198,-0.00270001 -0.0425001,-0.00690002 -0.0683002,-0.0125 -0.0491001,-0.0123 -0.0876002,-0.0184 -0.1158,-0.0184 -0.0462001,0 -0.0713002,0.0134 -0.0755002,0.0401001 -0.0215001,-0.0183 -0.0324001,-0.0418001 -0.0324001,-0.0702002 0,-0.0267001 0.0123,-0.0482001 0.0369001,-0.0644002 0.0222001,-0.015 0.0482001,-0.0225001 0.0781002,-0.0225001 0.0294001,0 0.0609001,0.01 0.0944002,0.0301001l0.0835002 0.0552001c0.0312001,0.02 0.0594001,0.0300001 0.0844002,0.0300001 0.0204,0 0.0402001,-0.00750002 0.0594001,-0.0225001 0.0191,-0.0151 0.0287001,-0.0321001 0.0287001,-0.0511001 0,-0.0506001 -0.0386001,-0.0860002 -0.1159,-0.106 -0.0239001,-0.00620002 -0.0539001,-0.0136 -0.0898002,-0.0222001 -0.0360001,-0.00870002 -0.0781002,-0.0188 -0.1267,-0.0305001 -0.0784002,-0.0313001 -0.1177,-0.0825002 -0.1177,-0.1539 0,-0.0440001 0.0147,-0.0821002 0.0440001,-0.1145 0.0408001,-0.0462001 0.1016,-0.0693002 0.1824,-0.0693002 0.0132,0 0.0294001,0.000700002 0.0486001,0.00240001 0.0191,0.0017 0.0421001,0.00390001 0.0691002,0.00670002 0.0270001,0.00280001 0.0501001,0.00500001 0.0697002,0.00680002 0.0194,0.0016 0.0357001,0.00240001 0.0489001,0.00240001 0.0012,0 0.00630002,-0.000700002 0.0153,-0.002 0.00900002,-0.0014 0.0213001,-0.00360001 0.0368001,-0.00630002 0.000600001,0.00380001 0.0011,0.00730002 0.0013,0.0105 0.000300001,0.00300001 0.000500001,0.00560001 0.000500001,0.00790002 0,0.0328001 -0.0147,0.0610001 -0.0440001,0.0844002 -0.0299001,0.0228001 -0.0626002,0.0342001 -0.0980002,0.0342001 -0.0359001,0 -0.0622002,-0.0133 -0.0790002,-0.0401001 0.00840002,-0.00780002 0.0126,-0.0156 0.0126,-0.0234001 0,-0.0161 -0.00900002,-0.0289001 -0.0270001,-0.0385001 -0.0155,-0.00780002 -0.0327001,-0.0117 -0.0512001,-0.0117 -0.0790002,0 -0.1186,0.0254001 -0.1186,0.0762002 0,0.0368001 0.0378001,0.0635002 0.1132,0.0802002 0.1222,0.0267001 0.1923,0.0446001 0.210201,0.0535001 0.0761002,0.0340001 0.1141,0.0911002 0.1141,0.1714zm-0.0773002 -3.58581l0 0c0.0202,-0.0107 0.0402001,-0.0205 0.0597001,-0.0296001 0.0247001,-0.0114 0.0500001,-0.0222001 0.0758002,-0.0321001 0.1302,-0.0502001 0.262801,-0.0758002 0.395201,-0.0805002l0.000700002 0c0.0229001,-0.000800002 0.0456001,-0.001 0.0681002,-0.000400001 0.0225001,0.000500001 0.0446001,0.0018 0.0658002,0.00380001 0.1121,0.0105 0.208501,0.0418001 0.266001,0.1009 0.00400001,0.00410001 0.00730002,0.00840002 0.00990002,0.0128 0.00750002,0.013 0.00850002,0.0258001 0.00440001,0.0382001 -0.00360001,0.0112 -0.0111,0.0211001 -0.0214001,0.0298001 -0.00710002,0.00600001 -0.0158,0.0115 -0.0254001,0.0164 -0.00910002,0.00460001 -0.0148,0.00860002 -0.0173,0.012 0.000700002,0.000900002 0.00210001,0.002 0.00400001,0.00310001 0.0109,0.00710002 0.0309001,0.0132 0.0577001,0.0174l0.0001 0 0.001 0.0002c0.1125,0.0173 0.248301,0.0230001 0.391901,0.0291001 0.0361001,0.0015 0.0726002,0.00310001 0.1072,0.00470001 0.128,0.00610001 0.236501,0.0122 0.324301,0.0233001 0.0900002,0.0115 0.1587,0.0285001 0.2046,0.0563001 0.00430001,0.00260001 0.00840002,0.00550001 0.012,0.00850002l0.0001 0c0.0141,0.0114 0.0225001,0.0253001 0.0247001,0.0404001 0.00230001,0.015 -0.0017,0.0306001 -0.0125,0.0460001 -0.00290001,0.00420001 -0.00600001,0.00810002 -0.00960002,0.0118 -0.0235001,0.0248001 -0.0426001,0.0462001 -0.0566001,0.0651002 -0.0135,0.0178 -0.0227001,0.0335001 -0.0269001,0.0473001l-0.0001 0.0001c-0.0013,0.00440001 -0.00220001,0.00880002 -0.00260001,0.0129 -0.000400001,0.00410001 -0.000300001,0.00780002 0.0002,0.0113 0.00280001,0.0189 0.0192,0.0351001 0.0491001,0.0486001l0 0.0001 0.000700002 0.000300001c0.0600001,0.0271001 0.1291,0.0442001 0.1955,0.0607001 0.0978002,0.0243001 0.1899,0.0473001 0.246401,0.0999002l-0.0240001 0.0317001c-0.0456001,-0.0198 -0.0869002,-0.0365001 -0.1264,-0.0476001 -0.0386001,-0.011 -0.0756002,-0.0167 -0.1139,-0.0151l-0.000900002 0c-0.1433,0.000500001 -0.250701,-0.00820002 -0.325301,-0.0351001 -0.0800002,-0.0289001 -0.1232,-0.0775002 -0.1319,-0.1559l-0.0001 -0.000300001 0 -0.0001c-0.0011,-0.0106 0,-0.0205 0.000900002,-0.0300001 0.000700002,-0.00610001 0.0013,-0.012 0.0012,-0.0168 -0.000400001,-0.011 -0.00980002,-0.0192 -0.0606001,-0.0179l-0.000900002 0.0001c-0.0734002,0.00220001 -0.1721,0.0212001 -0.288101,0.0436001 -0.0868002,0.0167 -0.1831,0.0353001 -0.286401,0.0502001l0 0 -0.000300001 0.0001 -0.0001 0c-0.0157,0.00230001 -0.0320001,0.00390001 -0.0485001,0.00490001 -0.00850002,0.000600001 -0.0171,0.000900002 -0.0257001,0.001 0.00290001,0.00710002 0.00460001,0.0149 0.00460001,0.0231001 0,0.0342001 -0.0291001,0.0621002 -0.0646002,0.0617001l-0.0747002 0c0.441501,0.0262001 0.849002,0.277701 1.0514,0.639602 0.00560001,0.00950002 0.0259001,0.0264001 0.0352001,0.0321001 0.0966002,0.0571001 0.251801,0.0141 0.254701,-0.0605001 0,-0.000700002 0,-0.0015 0,-0.00230001l0 0.00230001 0 0.271301c-0.1618,0.1303 -0.570001,0.1229 -0.696302,-0.0481001 -0.1414,-0.244601 -0.422001,-0.405201 -0.721502,-0.405201 -0.299201,0 -0.579801,0.1606 -0.721202,0.405201 -0.1262,0.171 -0.534401,0.1784 -0.696302,0.0481001l0 -0.271301 0 -0.00230001c0,0.000800002 0,0.0016 0,0.00230001 0.00300001,0.0746002 0.1582,0.1176 0.254801,0.0605001 0.00930002,-0.00570001 0.0296001,-0.0226001 0.0351001,-0.0321001 0.1669,-0.298301 0.473201,-0.521601 0.822802,-0.605601l-0.533801 -0.630102c-0.00660002,0.0019 -0.0136,0.00300001 -0.0209001,0.00300001 -0.0384001,0 -0.0700002,-0.0295001 -0.0700002,-0.0656002 0,-0.0360001 0.0316001,-0.0655002 0.0700002,-0.0655002 0.0386001,0 0.0701002,0.0295001 0.0701002,0.0655002 0,0.0149 -0.00540001,0.0287001 -0.0143,0.0397001l0.0532001 0.0630002zm0.736902 0.364901l0 0 -0.0012 -0.000400001 -0.0496001 0 -0.00230001 0.000400001 0.0531001 0zm-0.1439 0.0289001l0 0c-0.0350001,0.0128 -0.0694002,0.0252001 -0.1044,0.0368001 -0.0333001,0.0109 -0.0662002,0.0209001 -0.0991002,0.0291001l0.0981002 0.1159 -0.01 0.00720002c0.0643002,-0.0137 0.13,-0.0229001 0.1964,-0.0268001l-0.0766002 0c-0.0356001,0.000400001 -0.0647002,-0.0275001 -0.0647002,-0.0617001 0,-0.0342001 0.0291001,-0.0622002 0.0651002,-0.0617001l0.0241001 0c0.00990002,-0.0101 0.0137,-0.0231001 0.00510001,-0.0332001l-0.0203 0c-0.00540001,0 -0.0103,-0.00210001 -0.0137,-0.00560001zm-0.514301 -0.388001l0 0c-0.0178,0.00820002 -0.0350001,0.0167 -0.0520001,0.0256001l0.334001 0.394401c0.0376001,-0.00880002 0.0754002,-0.0199 0.1138,-0.0326001 0.0424001,-0.014 0.0866002,-0.0303001 0.1319,-0.0470001 0.00920002,-0.00340001 0.018,-0.00640002 0.0266001,-0.00900002 -0.00490001,-0.00850002 -0.00780002,-0.0185 -0.00780002,-0.0299001 0,-0.0510001 0.1192,-0.0853002 0.1243,-0.1468 0.00510001,0.0615001 0.1243,0.0958002 0.1243,0.1468 0,0.0282001 -0.0175,0.0476001 -0.0407001,0.0572001l-0.0378001 0 0.000300001 0.000400001 0.0986002 0c0.0102,0 0.0185,0.00780002 0.0185,0.0173 0,0.00950002 -0.00830002,0.0172 -0.0185,0.0172l-0.0234001 0c-0.00630002,0.00860002 -0.00720002,0.017 -0.0019,0.0253001 0.0209001,0.00400001 0.0454001,0.00630002 0.0709002,0.00680002 0.0145,0.000400001 0.0295001,0.0001 0.0448001,-0.000800002 0.0148,-0.000800002 0.0298001,-0.00240001 0.0447001,-0.00450001l0.0001 0 0 0 0.0002 0c0.1021,-0.0147 0.198,-0.0332001 0.284601,-0.0499001 0.1178,-0.0226001 0.218201,-0.0421001 0.295301,-0.0444001l0.0001 0 0.000900002 0c0.0868002,-0.00240001 0.1032,0.0226001 0.1043,0.0563001 0.0002,0.00730002 -0.000600001,0.0144 -0.0014,0.0216001 -0.000800002,0.00760002 -0.0017,0.0156 -0.001,0.0222001l0.0001 0 0 0.000400001c0.00700002,0.0616001 0.0412001,0.1001 0.1049,0.1231 0.0645002,0.0232001 0.1581,0.0318001 0.282401,0.0324001 -0.0570001,-0.0144 -0.1148,-0.0307001 -0.1676,-0.0546001l-0.000700002 -0.0002 -0.0001 0c-0.0434001,-0.0197 -0.0676002,-0.0461001 -0.0725002,-0.0790002 -0.001,-0.00670002 -0.0012,-0.0133 -0.000600001,-0.02 0.000700002,-0.00660002 0.00210001,-0.0134 0.00420001,-0.0203l0 -0.0001c0.00560001,-0.0182 0.0168,-0.0376001 0.0330001,-0.0593001 0.0156,-0.0207001 0.0356001,-0.0432001 0.0596001,-0.0685002 0.00240001,-0.00260001 0.00440001,-0.00500001 0.00590001,-0.00720002 0.00500001,-0.00690002 0.00680002,-0.0134 0.00610001,-0.0189 -0.000900002,-0.00560001 -0.00450001,-0.0111 -0.0108,-0.0162l0 -0.0001c-0.002,-0.0017 -0.00450001,-0.00340001 -0.00710002,-0.00490001 -0.0402001,-0.0244001 -0.1033,-0.0396001 -0.1872,-0.0503001 -0.0862002,-0.011 -0.1937,-0.017 -0.320801,-0.0230001 -0.0374001,-0.0018 -0.0723002,-0.00320001 -0.1069,-0.00470001 -0.145,-0.00610001 -0.282001,-0.012 -0.396801,-0.0296001l-0.0001 0 -0.0011 -0.0002 0 0c-0.0331001,-0.00510001 -0.0590001,-0.0135 -0.0751002,-0.0241001 -0.0104,-0.00660002 -0.0174,-0.0145 -0.0207001,-0.0235001l0.0001 0c-0.00390001,-0.0106 -0.00270001,-0.0214001 0.00440001,-0.0320001 0.00610001,-0.00930002 0.0171,-0.0184 0.0335001,-0.0266001 0.00650002,-0.00340001 0.0123,-0.00700002 0.0171,-0.011 0.00480001,-0.00410001 0.00820002,-0.00820002 0.00940002,-0.0119 0.000800002,-0.00240001 0.000600001,-0.00510001 -0.0011,-0.00790002 -0.001,-0.0016 -0.00220001,-0.00320001 -0.00410001,-0.00520001 -0.0498001,-0.0510001 -0.1364,-0.0785002 -0.238601,-0.0881002 -0.0205,-0.0019 -0.0415001,-0.00310001 -0.0627002,-0.00370001 -0.0215001,-0.000500001 -0.0433001,-0.000400001 -0.0656002,0.000500001l-0.000700002 0c-0.1274,0.00450001 -0.255101,0.0293001 -0.380501,0.0775002 -0.0240001,0.00920002 -0.0483001,0.0196 -0.0730002,0.0310001zm-0.212701 2.93041l0 0 0.0635002 0c0.000400001,0 0.000900002,0 0.000900002,0 0.0203,0 0.0365001,-0.0151 0.0365001,-0.0341001 0,-0.0191 -0.0162,-0.0342001 -0.0374001,-0.0338001l-0.0348001 0 0 -0.0256001 1.7072 0 0 0.0256001 -0.0341001 0c-0.0203,-0.000400001 -0.0365001,0.0147 -0.0365001,0.0338001 0,0.019 0.0162,0.0341001 0.0365001,0.0341001l0.000500001 0 0.0623002 0 0 0.0261001 -0.0250001 0c0,0.0417001 0.0493001,0.0773002 0.1184,0.0912002 -0.00680002,0.00610001 -0.0106,0.0133 -0.0106,0.0209001 0,0.0225001 0.0339001,0.0407001 0.0753002,0.0407001 0.0415001,0 0.0754002,-0.0182 0.0754002,-0.0407001 0,-0.00780002 -0.00410001,-0.0151 -0.0111,-0.0212001 0.0683002,-0.0141 0.117,-0.0495001 0.117,-0.0909002l-0.0256001 0 0 -0.0261001 0.0635002 0c0.000400001,0 0.000900002,0 0.000900002,0 0.0203,0 0.0365001,-0.0151 0.0365001,-0.0341001 0,-0.0191 -0.0162,-0.0342001 -0.0374001,-0.0338001l-0.0347001 0 0 -0.0256001 0.165 0c0.0440001,0 0.0768002,-0.0192 0.0870002,-0.0336001l0.0901002 -0.1275c0.0106,-0.0154 0.0313001,-0.0240001 0.0487001,-0.0286001 -0.00480001,0.00530001 -0.00770002,0.0121 -0.00770002,0.0195 0,0.0163 0.0142,0.0297001 0.0317001,0.0297001l0.00310001 0c-0.0015,0.00290001 -0.00230001,0.00620002 -0.00230001,0.00970002 0,0.0122 0.0106,0.0221001 0.0235001,0.0221001 0.013,0 0.0236001,-0.00990002 0.0236001,-0.0221001 0,-0.00350001 -0.000900002,-0.00680002 -0.00240001,-0.00970002l0.00310001 0c0.0174,0 0.0316001,-0.0134 0.0316001,-0.0297001 0,-0.00970002 -0.00500001,-0.0183 -0.0128,-0.0238001l0.00870002 0c0.0191,0.000500001 0.0343001,-0.0149 0.0343001,-0.0328001 0,-0.0189 -0.0162,-0.0315001 -0.0360001,-0.0315001l-0.1083 0 -1.0232 0c0.1787,-0.00850002 0.250701,-0.0602001 0.334401,-0.155 0.0577001,-0.0658002 0.0513001,-0.1372 0.1082,-0.1855 -0.00960002,0.0261001 -0.0149,0.0543001 -0.0149,0.0835002 0,0.1408 0.1226,0.255701 0.273001,0.255701 0.1504,0 0.273001,-0.1149 0.273001,-0.255701 0,-0.1407 -0.1226,-0.255601 -0.273001,-0.255601 -0.0643002,0 -0.1236,0.0210001 -0.1703,0.0560001 -0.00220001,-0.012 -0.00520001,-0.0217001 -0.0245001,-0.0231001l-0.0116 0 0 -0.0251001 0.0269001 0c0.00970002,0 0.0194,-0.00780002 0.0194,-0.0182l0 -0.0017c0,-0.0104 -0.00840002,-0.0183 -0.0194,-0.0183l-0.0841002 0 0 -0.0254001 0.0309001 0c0.0199,0.0012 0.0625002,-0.01 0.0629002,-0.0386001 0.000400001,-0.0238001 -0.0582001,-0.1367 -0.0499001,-0.1731 0.00690002,-0.0113 0.0147,-0.0199 0.0300001,-0.0269001l-0.0523001 0 0 -0.0272001 0.1203 0c0.0101,0 0.0194,-0.00780002 0.0194,-0.0182l0 -0.0018c0,-0.0103 -0.00830002,-0.0182 -0.0194,-0.0182l-0.0232001 0 0 -0.0269001 0.0387001 0c0.0575001,0 0.0272001,-0.0617001 0.0580001,-0.0916002l0.0462001 0c-0.0137,0.00630002 -0.0233001,0.0198 -0.0233001,0.0351001 0,0.0215001 0.0188,0.0391001 0.0419001,0.0391001l0.00410001 0c-0.00210001,0.00380001 -0.00320001,0.00820002 -0.00320001,0.0128 0,0.0161 0.014,0.0292001 0.0312001,0.0292001 0.0171,0 0.0310001,-0.0131 0.0310001,-0.0292001 0,-0.00460001 -0.0012,-0.00900002 -0.00320001,-0.0128l0.00410001 0c0.0229001,0 0.0418001,-0.0176 0.0418001,-0.0391001 0,-0.0153 -0.00960002,-0.0288001 -0.0234001,-0.0351001l0.0362001 0 0 -0.0598001 -0.723802 0 0 0.0598001 0.000400001 0 0 0.0916002 0.00230001 0 0 0.0356001c-0.0018,0.00290001 -0.00270001,0.00620002 -0.00270001,0.00950002l0 0.0018c0,0.00950002 0.00910002,0.0182 0.0194,0.0182l0.0185 0 0 0.0272001 -0.0375001 0c-0.0319001,0.1355 -0.1137,0.245101 -0.000400001,0.238601l0.0166 0 0 0.0254001 -0.0786002 0c-0.0111,0 -0.0194,0.00920002 -0.0194,0.0183l0 0.0017c0,0.00910002 0.00970002,0.0182 0.0194,0.0182l0.0324001 0 0 0.0251001 -0.0269001 0c-0.0337001,0 -0.0411001,0.0680002 -0.0378001,0.0680002l0.465701 0c-0.00690002,0.00840002 -0.0133,0.0173 -0.019,0.0266001 -0.1203,-0.0436001 -0.242301,-0.0240001 -0.315501,0.0127 -0.0956002,0.0481001 -0.0513001,0.292301 -0.312001,0.370201 0.0153,0.000900002 0.0301001,0.0015 0.0444001,0.00220001l-0.245101 0c0.1958,-0.00540001 0.312601,-0.0655002 0.363401,-0.1593 0.1128,-0.2061 -0.0887002,-0.255901 -0.0314001,-0.359801 -0.1637,-0.0420001 -0.1928,0.1057 -0.1896,0.210901 0.00280001,0.0990002 -0.0768002,0.245801 -0.250001,0.306001 0.0163,0.001 0.0322001,0.0017 0.0476001,0.00220001l-0.1535 0c0.238401,-0.0273001 0.366301,-0.268001 0.308301,-0.351601 -0.0351001,-0.0510001 -0.0897002,-0.0631002 -0.1488,-0.0472001 -0.0546001,0.0147 -0.1031,0.0394001 -0.1632,0.0334001 -0.0605001,0.00600001 -0.1091,-0.0187 -0.1637,-0.0334001 -0.0591001,-0.0159 -0.1137,-0.00380001 -0.1488,0.0472001 -0.0579001,0.0836002 0.0699002,0.324301 0.308801,0.351601l-0.1541 0c0.0155,-0.000500001 0.0314001,-0.0012 0.0478001,-0.00220001 -0.1733,-0.0602001 -0.252901,-0.207001 -0.250101,-0.306001 0.00320001,-0.1052 -0.0259001,-0.252901 -0.1896,-0.210901 0.0574001,0.1039 -0.1442,0.1537 -0.0314001,0.359801 0.0509001,0.0938002 0.1676,0.1539 0.363401,0.1593l-0.245101 0c0.0143,-0.000700002 0.0291001,-0.0013 0.0444001,-0.00220001 -0.260701,-0.0779002 -0.216401,-0.322101 -0.312001,-0.370201 -0.0732002,-0.0367001 -0.1952,-0.0563001 -0.315401,-0.0127 -0.00560001,-0.00930002 -0.012,-0.0182 -0.0188,-0.0266001l0.465401 0c0.00330001,0 -0.00410001,-0.0680002 -0.0378001,-0.0680002l-0.0250001 0 0 -0.0251001 0.0305001 0c0.00970002,0 0.0194,-0.00910002 0.0194,-0.0182l0 -0.0017c0,-0.00910002 -0.00820002,-0.0183 -0.0194,-0.0183l-0.0768002 0 0 -0.0254001 0.0149 0c0.1133,0.00650002 0.0314001,-0.1031 -0.000500001,-0.238601l-0.0356001 0 0 -0.0272001 0.0166 0c0.0102,0 0.0195,-0.00870002 0.0195,-0.0182l0 -0.0018c0,-0.0019 -0.000300001,-0.00380001 -0.000900002,-0.00560001l0 -0.0399001 0.000400001 0 0 -0.0912002 0.000500001 0 0 -0.0598001 -0.723902 0 0 0.0598001 0.0310001 0c-0.0139,0.00630002 -0.0233001,0.0198 -0.0233001,0.0351001 0,0.0215001 0.0187,0.0391001 0.0416001,0.0391001l0.00430001 0c-0.002,0.00380001 -0.00320001,0.00820002 -0.00320001,0.0128 0,0.0161 0.014,0.0292001 0.0311001,0.0292001 0.0171,0 0.0311001,-0.0131 0.0311001,-0.0292001 0,-0.00460001 -0.0011,-0.00900002 -0.00310001,-0.0128l0.00400001 0c0.0230001,0 0.0417001,-0.0176 0.0417001,-0.0391001 0,-0.0153 -0.00940002,-0.0288001 -0.0232001,-0.0351001l0.0530001 0c0.0282001,0.0309001 -0.0001,0.0912002 0.0564001,0.0912002l0.0405001 0 0 0.0273001 -0.0250001 0c-0.0111,0 -0.0194,0.00790002 -0.0194,0.0182l0 0.0018c0,0.0104 0.00930002,0.0182 0.0194,0.0182l0.1221 0 0 0.0272001 -0.0541001 0c0.0152,0.00700002 0.0231001,0.0156 0.0300001,0.0269001 0.00840002,0.0364001 -0.0503001,0.1493 -0.0498001,0.1731 0.000400001,0.0286001 0.0429001,0.0398001 0.0628002,0.0386001l0.0328001 0 0 0.0254001 -0.0860002 0c-0.0111,0 -0.0193,0.00790002 -0.0193,0.0183l0 0.0017c0,0.0104 0.00970002,0.0182 0.0193,0.0182l0.0287001 0 0 0.0251001 -0.0135 0c-0.0189,0.0013 -0.0222001,0.0109 -0.0243001,0.0228001 -0.0467001,-0.0352001 -0.1062,-0.0562001 -0.1706,-0.0562001 -0.1503,0 -0.272901,0.1148 -0.272901,0.255601 0,0.1409 0.1226,0.255601 0.272901,0.255601 0.1504,0 0.273101,-0.1147 0.273101,-0.255601 0,-0.0290001 -0.00520001,-0.0570001 -0.0148,-0.0830002 0.0570001,0.0484001 0.0506001,0.1197 0.1082,0.1855 0.0837002,0.0948002 0.1557,0.1465 0.334401,0.155l-1.0232 0 -0.1095 -0.0014c-0.02,0 -0.0348001,0.014 -0.0348001,0.0329001 0,0.0179 0.0153,0.0333001 0.0343001,0.0328001l0.00760002 0c-0.00780002,0.00550001 -0.0129,0.0141 -0.0129,0.0238001 0,0.0163 0.0142,0.0297001 0.0317001,0.0297001l0.00320001 0c-0.0014,0.00290001 -0.00240001,0.00620002 -0.00240001,0.00970002 0,0.0122 0.0105,0.0221001 0.0236001,0.0221001 0.013,0 0.0236001,-0.00990002 0.0236001,-0.0221001 0,-0.00350001 -0.000800002,-0.00680002 -0.00240001,-0.00970002l0.00300001 0c0.0175,0 0.0317001,-0.0134 0.0317001,-0.0297001 0,-0.00780002 -0.00320001,-0.015 -0.00840002,-0.0203 0.0174,0.00430001 0.0390001,0.0128 0.0505001,0.0294001l0.0902002 0.1275c0.0111,0.0162 0.0429001,0.0336001 0.0869002,0.0336001l0.1623 0 0 0.0256001 -0.0343001 0c-0.0203,-0.000400001 -0.0365001,0.0147 -0.0365001,0.0338001 0,0.019 0.0162,0.0341001 0.0365001,0.0341001l0.000500001 0 0.0624002 0 0 0.0261001 -0.0249001 0c0,0.0417001 0.0494001,0.0773002 0.1185,0.0912002 -0.00690002,0.00610001 -0.0109,0.0133 -0.0109,0.0209001 0,0.0225001 0.0339001,0.0407001 0.0754002,0.0407001 0.0414001,0 0.0753002,-0.0182 0.0753002,-0.0407001 0,-0.00780002 -0.00390001,-0.0151 -0.0109,-0.0212001 0.0683002,-0.0141 0.1168,-0.0495001 0.1168,-0.0909002l-0.0255001 0 0 -0.0261001zm0.883702 -1.9294l0 0c-0.345801,0 -0.627902,0.264101 -0.627902,0.587801 0,0.323901 0.282101,0.588001 0.627902,0.588001 0.345801,0 0.627802,-0.264101 0.627802,-0.588001 0,-0.323701 -0.282001,-0.587801 -0.627802,-0.587801zm-1.2669 0.0957002l0 0c-0.0385001,0 -0.0697002,0.0293001 -0.0697002,0.0652002 0,0.0359001 0.0312001,0.0652002 0.0697002,0.0652002 0.0382001,0 0.0696002,-0.0293001 0.0696002,-0.0652002 0,-0.0359001 -0.0314001,-0.0652002 -0.0696002,-0.0652002zm2.53591 0l0 0c-0.0385001,0 -0.0697002,0.0293001 -0.0697002,0.0652002 0,0.0359001 0.0312001,0.0652002 0.0697002,0.0652002 0.0383001,0 0.0697002,-0.0293001 0.0697002,-0.0652002 0,-0.0359001 -0.0314001,-0.0652002 -0.0697002,-0.0652002zm-2.68571 0.0624002l0 0 0 -0.00210001c0,0.000600001 0,0.0014 0,0.00210001zm0 -0.00210001l0 0 0 -0.000900002c0,0.000300001 0,0.000600001 0,0.000900002zm2.83531 0.00210001l0 0c0,-0.000700002 0,-0.0015 0,-0.00210001l0 -0.000900002c0,0.000300001 0,0.000600001 0,0.000900002 0,-0.000300001 0,-0.000600001 0,-0.000900002l0 0.000900002c0,0.000600001 0,0.0014 0,0.00210001zm-0.1343 2.42091l0 0c0,0.0569001 -0.0213001,0.1033 -0.0637002,0.1395 -0.0426001,0.0352001 -0.0950002,0.0527001 -0.1573,0.0527001 -0.0144,0 -0.0314001,-0.0013 -0.0512001,-0.00420001 -0.0198,-0.00270001 -0.0425001,-0.00690002 -0.0682002,-0.0125 -0.0492001,-0.0123 -0.0879002,-0.0184 -0.116,-0.0184 -0.0461001,0 -0.0712002,0.0134 -0.0754002,0.0401001 -0.0216001,-0.0183 -0.0323001,-0.0418001 -0.0323001,-0.0702002 0,-0.0267001 0.0122,-0.0482001 0.0368001,-0.0644002 0.0221001,-0.015 0.0482001,-0.0225001 0.0782002,-0.0225001 0.0292001,0 0.0607001,0.01 0.0942002,0.0301001l0.0836002 0.0552001c0.0311001,0.02 0.0593001,0.0300001 0.0845002,0.0300001 0.0203,0 0.0401001,-0.00750002 0.0593001,-0.0225001 0.0191,-0.0151 0.0287001,-0.0321001 0.0287001,-0.0511001 0,-0.0506001 -0.0386001,-0.0860002 -0.1159,-0.106 -0.0239001,-0.00620002 -0.0539001,-0.0136 -0.0898002,-0.0222001 -0.0359001,-0.00870002 -0.0782002,-0.0188 -0.1267,-0.0305001 -0.0785002,-0.0313001 -0.1177,-0.0825002 -0.1177,-0.1539 0,-0.0440001 0.0147,-0.0821002 0.0440001,-0.1145 0.0407001,-0.0462001 0.1015,-0.0693002 0.1823,-0.0693002 0.0132,0 0.0294001,0.000700002 0.0487001,0.00240001 0.0191,0.0017 0.0421001,0.00390001 0.0691002,0.00670002 0.0270001,0.00280001 0.0501001,0.00500001 0.0696002,0.00680002 0.0195,0.0016 0.0358001,0.00240001 0.0489001,0.00240001 0.0013,0 0.00640002,-0.000700002 0.0154,-0.002 0.00890002,-0.0014 0.0211001,-0.00360001 0.0368001,-0.00630002 0.000600001,0.00380001 0.001,0.00730002 0.0013,0.0105 0.000300001,0.00300001 0.000500001,0.00560001 0.000500001,0.00790002 0,0.0328001 -0.0147,0.0610001 -0.0440001,0.0844002 -0.0300001,0.0228001 -0.0627002,0.0342001 -0.0980002,0.0342001 -0.0359001,0 -0.0623002,-0.0133 -0.0791002,-0.0401001 0.00840002,-0.00780002 0.0126,-0.0156 0.0126,-0.0234001 0,-0.0161 -0.00890002,-0.0289001 -0.0269001,-0.0385001 -0.0156,-0.00780002 -0.0326001,-0.0117 -0.0512001,-0.0117 -0.0791002,0 -0.1186,0.0254001 -0.1186,0.0762002 0,0.0368001 0.0377001,0.0635002 0.1132,0.0802002 0.1222,0.0267001 0.1923,0.0446001 0.210201,0.0535001 0.0760002,0.0340001 0.1141,0.0911002 0.1141,0.1714zm-0.594801 -0.260801l0 0c0,0.0329001 -0.0166,0.0791002 -0.0502001,0.1388 -0.0138,0.0222001 -0.0274001,0.0442001 -0.0409001,0.0659002 -0.0135,0.0218001 -0.0271001,0.0438001 -0.0409001,0.0661002 -0.0311001,0.0507001 -0.0467001,0.0930002 -0.0467001,0.1271 0,0.0177 0.00840002,0.0328001 0.0252001,0.0451001l-0.226401 0c0.0156,-0.0117 0.0233001,-0.0251001 0.0233001,-0.0401001 0,-0.00390001 -0.000900002,-0.00810002 -0.00270001,-0.0125l-0.1896 -0.479901c-0.0101,-0.0240001 -0.0218001,-0.0415001 -0.0349001,-0.0526001l0.227201 0c-0.0143,0.0111 -0.0216001,0.0242001 -0.0216001,0.0392001 0,0.00510001 0.001,0.00950002 0.00280001,0.0134l0.1643 0.422201c0.00310001,-0.0112 0.00870002,-0.0282001 0.0171,-0.0511001 0.00840002,-0.0228001 0.0201,-0.0515001 0.0351001,-0.0860002 0.0215001,-0.0508001 0.0324001,-0.0987002 0.0324001,-0.1438 0,-0.0335001 -0.00840002,-0.0630002 -0.0252001,-0.0886002 -0.0210001,-0.0302001 -0.0479001,-0.0452001 -0.0808002,-0.0452001 -0.0162,0 -0.0280001,0.0016 -0.0351001,0.00510001 0.0234001,-0.0558001 0.0629002,-0.0837002 0.1186,-0.0837002 0.0430001,0 0.0793002,0.017 0.1086,0.0511001 0.0270001,0.0317001 0.0404001,0.0682002 0.0404001,0.1095zm-0.588401 0.443001l0 0 -0.226301 0c0.0174,-0.0128 0.0248001,-0.0304001 0.0224001,-0.0526001l-0.0485001 -0.438901 -0.1437 0.491501 -0.0674002 0 -0.1518 -0.483101 -0.0261001 0.415301c-0.0018,0.0251001 0.0114,0.0478001 0.0395001,0.0678002l-0.1284 0c0.0269001,-0.019 0.0413001,-0.0415001 0.0431001,-0.0678002l0.0359001 -0.464701c0.0019,-0.02 -0.00750002,-0.0376001 -0.0279001,-0.0526001l0.1995 0 0.1105 0.341001 0.1051 -0.341001 0.194 0c-0.0208001,0.0161 -0.0301001,0.0336001 -0.0278001,0.0526001l0.0647002 0.479901c0.00300001,0.0212001 0.0141,0.0386001 0.0332001,0.0526001zm-1.0536 -2.44861l-0.0357001 0.0265001c0,0 0.0016,-0.0230001 -0.0197,-0.0323001 -0.0257001,-0.0112 -0.0490001,0.00930002 -0.0604001,0.0322001 -0.0106,0.0210001 -0.013,0.0479001 0.0115,0.0585001 0.0191,0.00840002 0.0365001,-0.00370001 0.0371001,-0.00420001l-0.00750002 0.0436001 0.0401001 -0.00710002 -0.00330001 -0.0561001 0.0367001 -0.0260001 -0.00700002 0.0707002 0.0383001 -0.00940002 0.000600001 -0.0805002 0.0288001 0.0149 0.0206 -0.0349001 -0.1342 -0.0697002 -0.0207001 0.0350001 0.0748002 0.0388001zm1.9208 0.0845002l0 0c0.0239001,-0.00990002 0.0327001,-0.0371001 0.0220001,-0.0595001l-0.0275001 -0.0578001 -0.0287001 0.0119 0.0214001 0.0450001c0.00410001,0.00840002 0.000600001,0.0193 -0.00780002,0.0228001 -0.00840002,0.00360001 -0.0175,-0.000700002 -0.0220001,-0.0101l-0.0266001 -0.0560001 -0.0318001 0.0132 0.0103 0.0216001 -0.0315001 0.0265001c-0.00350001,0.00280001 -0.00660002,0.00480001 -0.00740002,0.00940002 -0.001,0.00420001 -0.0001,0.00770002 0.0018,0.0118l0.0281001 0.0592001 0.0279001 -0.0115 -0.017 -0.0356001c-0.0011,-0.00240001 -0.00210001,-0.00440001 -0.0017,-0.00670002 0.000400001,-0.00220001 0.00220001,-0.00400001 0.00420001,-0.00530001l0.0135 -0.0101c0.0002,0.000300001 0.0258001,0.0511001 0.0728002,0.0312001zm-0.1297 -0.0792002l0 0c0,0 -0.0365001,-0.00780002 -0.0582001,-0.0385001 -0.0193,-0.0267001 -0.0232001,-0.0643002 0.00590001,-0.0827002 0.019,-0.012 0.0396001,-0.00390001 0.0396001,-0.00390001 -0.0001,-0.000600001 -0.00400001,-0.0181 0.0141,-0.0300001 0.0234001,-0.0151 0.0525001,0.00540001 0.0674002,0.0260001 0.0104,0.0146 0.0215001,0.0385001 0.0215001,0.0385001l-0.0241001 0.0151c0,0 -0.00730002,-0.018 -0.0147,-0.0284001 -0.00800002,-0.0112 -0.0179,-0.0272001 -0.0315001,-0.0186 -0.00820002,0.00520001 -0.00500001,0.0131 -0.000400001,0.0195l0.0249001 0.0345001 -0.0241001 0.0151 -0.0238001 -0.0331001c-0.00540001,-0.00740002 -0.0147,-0.00900002 -0.0248001,-0.00290001 -0.0152,0.00920002 -0.0122,0.0223001 -0.00490001,0.0332001 0.0136,0.0199 0.0488001,0.0231001 0.0488001,0.0231001l-0.0157 0.0331001zm0.1177 -0.124l0 0c0.0011,-0.00210001 0.0184,-0.0503001 -0.0320001,-0.1025 -0.0333001,-0.0341001 -0.0744002,-0.0352001 -0.1078,-0.00700002l-0.1142 0.0962002 0.0286001 0.0297001 0.1141 -0.0962002c0,0 0.0328001,-0.0251001 0.0575001,0.0001 0.0315001,0.0323001 0.0222001,0.0617001 0.0219001,0.0620002l0.0319001 0.0177zm-0.1241 -0.1597l0 0c0.00980002,-0.00840002 0.0113,-0.0229001 0.002,-0.0323001 -0.00940002,-0.00920002 -0.0253001,-0.00980002 -0.0352001,-0.001 -0.00970002,0.00840002 -0.0101,0.0236001 -0.001,0.0327001 0.00910002,0.00910002 0.0248001,0.00890002 0.0342001,0.000600001zm-0.1482 0.1243l0 0 0.1122 -0.0981002 -0.0291001 -0.0292001 -0.0366001 0.0320001 -0.0242001 -0.0183 0.0153 -0.0176c0.00940002,-0.0109 0.0197,-0.0254001 -0.01,-0.0479001 -0.0103,-0.00780002 -0.0213001,-0.0141 -0.0228001,-0.0137l-0.0192 0.0222001c0.000700002,-0.000300001 0.012,0.00330001 0.0181,0.00790002 0.00660002,0.00510001 0.000900002,0.0118 -0.00250001,0.0158l-0.00910002 0.0104c-0.000500001,-0.000400001 -0.0225001,-0.0146 -0.0411001,0.00750002 -0.0112,0.0128 -0.0113,0.0308001 0.00510001,0.0432001 0.0257001,0.0196 0.0451001,-0.00350001 0.0451001,-0.00350001l0.0206 0.0156 -0.0509001 0.0444001 0.0291001 0.0293001zm-0.1818 -0.1453l0 0 0.0836002 -0.1207 -0.0357001 -0.0217001 -0.0837002 0.1206 0.0358001 0.0218001zm0.00460001 -0.12l0 0c-0.0117,0.0241001 -0.0393001,0.0374001 -0.0678002,0.0250001 -0.0101,-0.00450001 -0.015,-0.0121 -0.0163,-0.0141l0.0138 -0.0276001c0.000500001,0.0013 0.00660002,0.0101 0.0134,0.0123 0.01,0.00320001 0.0212001,-0.000900002 0.0257001,-0.00990002 0.00520001,-0.0105 -0.001,-0.0231001 -0.0124,-0.0266001 -0.00560001,-0.0017 -0.0133,-0.000600001 -0.0148,0.0002l0.013 -0.0260001c0.001,0.0001 0.0151,0.0013 0.0238001,0.00500001 0.0239001,0.011 0.0327001,0.0387001 0.0216001,0.0617001zm-0.0470001 0.0852002l0 0c-0.00400001,0 -0.0322001,-0.00550001 -0.0505001,-0.0142 -0.0413001,-0.0198 -0.0501001,-0.0579001 -0.0362001,-0.0860002l0.0384001 -0.0770002 0.0371001 0.0162 -0.0387001 0.0776002c-0.0103,0.0208001 -0.00280001,0.0343001 0.0141,0.0420001 0.0196,0.00890002 0.0393001,0.00950002 0.0428001,0.00850002l-0.00700002 0.0329001zm-0.1339 -0.0571001l0 0 0.0448001 -0.1374 -0.0408001 -0.0117 -0.0279001 0.0858002c-0.00830002,0.00230001 -0.0235001,0.00520001 -0.0400001,0.000400001 -0.0187,-0.00530001 -0.0299001,-0.0166 -0.0265001,-0.0249001 0.00280001,-0.00760002 0.00960002,-0.002 0.0220001,0.0015 0.0214001,0.00620002 0.0412001,-0.00390001 0.0489001,-0.0274001 0.00650002,-0.0202 -0.00350001,-0.0427001 -0.0251001,-0.0489001l-0.0408001 -0.0117 -0.00950002 0.0290001 0.0241001 0.00700002c0.00790002,0.00220001 0.0132,0.0101 0.0108,0.0174 -0.00230001,0.00700002 -0.0123,0.00810002 -0.0201,0.00600001l-0.0284001 -0.00820002c-0.00810002,-0.00230001 -0.0177,0.0016 -0.0201,0.00890002 -0.0116,0.0355001 0.0216001,0.0693002 0.0571001,0.0796002 0.0143,0.00400001 0.0294001,0.00260001 0.0377001,0.0014l-0.00700002 0.0216001 0.0408001 0.0116zm-0.1661 -0.0454001l0 0 -0.0420001 -0.00690002 0.0266001 -0.1416 0.0420001 0.00700002 -0.0266001 0.1415zm-0.0513001 -0.1157l0 0c0.000900002,-0.0246001 -0.0212001,-0.0438001 -0.0475001,-0.0447001l-0.0675002 -0.00230001 -0.0011 0.0294001 0.0525001 0.0018c0.00990002,0.000300001 0.0188,0.00800002 0.0185,0.0166 -0.000300001,0.00860002 -0.00840002,0.0144 -0.0193,0.014l-0.0655002 -0.00210001 -0.0011 0.0326001 0.0251001 0.000800002 0.0116 0.0381001c0.0012,0.00420001 0.0017,0.00770002 0.00580001,0.0104 0.00360001,0.00270001 0.00730002,0.00340001 0.0121,0.00360001l0.0692002 0.00220001 0.0011 -0.0284001 -0.0416001 -0.0013c-0.00270001,0 -0.00520001,-0.0001 -0.00710002,-0.0015 -0.00210001,-0.0014 -0.00290001,-0.00360001 -0.00320001,-0.00590001l-0.00380001 -0.0158c0.0002,0 0.0604001,0.000700002 0.0618001,-0.0475001zm-0.1523 0.0979002l0 0 -0.00270001 -0.1437 -0.0426001 0.000700002 0.00270001 0.1438 0.0426001 -0.000800002zm-0.0663002 0.0013l0 0 -0.0161 -0.143 -0.0424001 0.00420001 0.00300001 0.0260001 -0.0769002 0.0124c-0.0273001,0.00450001 -0.0489001,0.0274001 -0.0435001,0.0529001 0.00680002,0.0304001 0.0339001,0.0382001 0.0675002,0.0326001 0.0312001,-0.00510001 0.0484001,-0.0248001 0.0439001,-0.0464001 -0.00360001,-0.0196 -0.0113,-0.0179 -0.013,-0.0197l0.0251001 -0.00410001 0.01 0.0892002 0.0424001 -0.00410001zm-0.0962002 -0.0610001l0 0c0.00280001,0.00960002 -0.00630002,0.0189 -0.017,0.0203 -0.0105,0.0015 -0.0197,0.000300001 -0.0226001,-0.0151 -0.00350001,-0.0182 0.0228001,-0.0206 0.0257001,-0.0198 0.00260001,0.000600001 0.0108,0.00410001 0.0139,0.0146zm-0.0744002 0.0880002l0 0 -0.0408001 0.0117 -0.0189 -0.0580001 -0.0277001 0.00950002c0,0 0.0111,0.0274001 -0.0201,0.0381001 -0.0199,0.00670002 -0.0362001,-0.00260001 -0.0422001,-0.0182 -0.0106,-0.0264001 0.0137,-0.0366001 0.0143,-0.0369001l-0.00490001 -0.0126c-0.0018,-0.00490001 -0.00500001,-0.0129 -0.013,-0.0101 -0.00740002,0.00240001 -0.0166,0.00960002 -0.0167,0.0103l-0.0104 -0.0266001c0.000500001,-0.0016 0.0119,-0.00720002 0.0243001,-0.0115 0.0360001,-0.0122 0.0439001,0.00360001 0.0490001,0.0167l0.00820002 0.0214001 0.0293001 -0.01 -0.0161 -0.0495001 0.0407001 -0.0117 0.0450001 0.1374zm-0.0953002 -0.1568l0 0c-0.0019,-0.0016 -0.0461001,-0.0313001 -0.1139,-0.0013 -0.0447001,0.0199 -0.0578001,0.0563001 -0.0388001,0.0945002l0.0648002 0.1302 0.0387001 -0.0168 -0.0648002 -0.1303c0,0 -0.0161,-0.0367001 0.0168,-0.0515001 0.0422001,-0.0187 0.0695002,-0.0017 0.0697002,-0.0015l0.0275001 -0.0233001zm-0.1087 0.228901l0 0 -0.0362001 0.0212001 -0.0813002 -0.1219 0.0361001 -0.0212001 0.0814002 0.1219zm-0.0570001 0.0334001l0 0 -0.0353001 0.0223001 -0.0188 -0.0261001c-0.00430001,0.00680002 -0.0127,0.0188 -0.0245001,0.0274001 -0.0212001,0.0155 -0.0535001,0.0232001 -0.0814002,-0.0017l-0.0228001 0.0199c0.0002,0.0011 0.00230001,0.0107 -0.0015,0.0201 -0.00550001,0.0127 -0.0132,0.0189 -0.0135,0.0192l0.0113 0.00710002c0.0019,0.0014 0.00420001,0.00290001 0.00670002,0.00250001 0.0014,-0.000400001 0.00340001,-0.0017 0.00520001,-0.00330001l0.0279001 -0.0244001 0.0231001 0.0232001 -0.0454001 0.0396001c-0.00300001,0.00260001 -0.00630002,0.00420001 -0.0104,0.00470001 -0.00450001,0.000500001 -0.00790002,-0.0019 -0.0114,-0.00400001l-0.0370001 -0.0193 -0.0144 0.0126 -0.0237001 -0.0239001 0.0407001 -0.0354001c0.00800002,-0.00700002 0.00750002,-0.0149 0.0012,-0.0212001 -0.00620002,-0.00630002 -0.0171,-0.00690002 -0.0239001,-0.001l-0.0311001 0.0272001 -0.0215001 -0.0215001c0,0 0.0258001,-0.0224001 0.0410001,-0.0357001 0.0279001,-0.0244001 0.0599001,0.00440001 0.0606001,0.00520001l0.0204 -0.0179c-0.00690002,-0.0208001 0.00210001,-0.0424001 0.0210001,-0.0562001 0.0131,-0.00960002 0.0245001,-0.0131 0.0245001,-0.0131l0.0195 0.0234001c0,0 -0.00730002,0.00270001 -0.0168,0.00950002 -0.0118,0.00870002 -0.013,0.0221001 -0.00480001,0.0320001 0.0121,0.0145 0.0299001,0.0105 0.0414001,0.00210001 0.0112,-0.00810002 0.0164,-0.0201 0.0186,-0.0262001l-0.0461001 -0.0639002 0.0353001 -0.0224001 0.0859002 0.1192zm-0.296601 0.262401l0 0 -0.0244001 0.0327001 -0.1199 -0.0785002c-0.0156,-0.0103 -0.0456001,-0.0277001 -0.0602001,-0.00820002 -0.00700002,0.00940002 -0.00300001,0.019 0.00550001,0.0246001 0.00980002,0.00630002 0.0191,0.00440001 0.0194,0.00450001l-0.0196 0.0262001c0,0 -0.0145,0.0018 -0.0283001,-0.00720002 -0.0168,-0.011 -0.0251001,-0.0310001 -0.00320001,-0.0603001 0.0237001,-0.0318001 0.0804002,-0.0323001 0.1125,-0.0113l0.1182 0.0775002zm-0.1838 0.0848002l0 0c0.0139,0.00600001 0.013,0.0237001 0.0129,0.0240001 0,0 -0.0148,0.0107 -0.0258001,0.00590001 -0.0103,-0.00450001 -0.0135,-0.0133 -0.00910002,-0.0219001 0.00490001,-0.00990002 0.0136,-0.0117 0.0220001,-0.00800002zm-0.1976 1.3749c-0.00700002,0.00330001 -0.0196,0.00780002 -0.0341001,0.00780002 -0.0166,0 -0.0357001,-0.00620002 -0.0357001,-0.0225001 0,-0.011 0.0113,-0.0198 0.0283001,-0.0198 0.0136,0 0.0221001,0.002 0.0221001,0.002l0 -0.0262001c0,0 -0.0128,-0.00330001 -0.0317001,-0.00330001 -0.0349001,0 -0.0647002,0.0171 -0.0647002,0.0453001 0,0.0398001 0.0387001,0.0532001 0.0724002,0.0532001 0.0176,0 0.0347001,-0.00420001 0.0434001,-0.00680002l0 0.0277001 0.0484001 0 0 -0.1269 -0.0484001 0 0 0.0695002zm2.48631 0.0386001l0 0c0,-0.0108 -0.012,-0.0204 -0.0271001,-0.0204 -0.0151,0 -0.0279001,0.00940002 -0.0279001,0.0204 0,0.0109 0.0128,0.0198 0.0279001,0.0198 0.0151,0 0.0271001,-0.00910002 0.0271001,-0.0198zm-0.0956002 -0.0657002l0 0c0.000400001,-0.0218001 -0.0183,-0.0418001 -0.0515001,-0.0418001 -0.0279001,0 -0.0457001,0.0178 -0.0457001,0.0396001 0,0.0295001 0.0387001,0.0478001 0.0395001,0.0478001 -0.000400001,0.000600001 -0.01,0.0119 -0.0317001,0.0116 -0.0128,0 -0.0322001,-0.00810002 -0.0322001,-0.0228001 0,-0.00960002 0.00540001,-0.0209001 0.00540001,-0.0209001l-0.0279001 -0.0107c0,0 -0.0108,0.0135 -0.0104,0.0341001 0.000400001,0.0367001 0.0372001,0.0463001 0.0682002,0.0463001 0.0653002,0 0.0855002,-0.0511001 0.0863002,-0.0832002zm-0.0341001 0.00670002l0 0c0,0.0153 -0.00920002,0.02 -0.00960002,0.0206 -0.000800002,0 -0.0222001,-0.00620002 -0.0222001,-0.0214001 0,-0.0126 0.00550001,-0.0203 0.0151,-0.0203 0.014,0 0.0167,0.0119 0.0167,0.0211001zm-0.1405 0.0288001l0 0 0 -0.0285001 -0.1456 0 0 0.0285001 0.1456 0zm-0.1546 0.0302001l0 0 -0.0231001 -0.0271001c0,0 -0.0257001,0.0226001 -0.0543001,0.0220001 -0.0155,-0.000300001 -0.0305001,-0.00480001 -0.0302001,-0.0197 0.000300001,-0.00990002 0.00780002,-0.0155 0.0186,-0.0155l0.0484001 0 0 -0.0240001 -0.0504001 0c-0.00920002,0 -0.0193,-0.0017 -0.0193,-0.00990002 0,-0.0136 0.0225001,-0.0124 0.0388001,-0.0124 0.015,0 0.0378001,0.00390001 0.0378001,0.00390001l0 -0.0239001c0,0 -0.0309001,-0.00420001 -0.0522001,-0.00420001 -0.0302001,0 -0.0693002,0.00990002 -0.0689002,0.0332001 0.000400001,0.0183 0.0205,0.0243001 0.0213001,0.0246001 0,0 -0.0213001,0.0101 -0.0213001,0.0290001 0,0.0291001 0.0402001,0.0449001 0.0794002,0.0449001 0.0445001,0.000300001 0.0754002,-0.0209001 0.0754002,-0.0209001zm-0.1827 0.0188l0 0 0 -0.1269 -0.0484001 0 0 0.1269 0.0484001 0zm-0.0810002 0l0 0 0 -0.1269 -0.0483001 0 0 0.0695002c-0.00710002,0.00330001 -0.0196,0.00780002 -0.0341001,0.00780002 -0.0167,0 -0.0356001,-0.00620002 -0.0356001,-0.0225001 0,-0.011 0.0112,-0.0198 0.0282001,-0.0198 0.0136,0 0.0220001,0.002 0.0220001,0.002l0 -0.0262001c0,0 -0.0127,-0.00330001 -0.0317001,-0.00330001 -0.0348001,0 -0.0647002,0.0171 -0.0647002,0.0453001 0,0.0398001 0.0388001,0.0532001 0.0724002,0.0532001 0.0177,0 0.0348001,-0.00420001 0.0435001,-0.00680002l0 0.0277001 0.0483001 0zm-0.1835 0l0 0 0 -0.1269 -0.0484001 0 0 0.1269 0.0484001 0zm-0.0670002 -0.0188l0 0 -0.0233001 -0.0271001c0,0 -0.0255001,0.0226001 -0.0542001,0.0220001 -0.0155,-0.000300001 -0.0305001,-0.00480001 -0.0301001,-0.0197 0.000400001,-0.00990002 0.00770002,-0.0155 0.0185,-0.0155l0.0484001 0 0 -0.0240001 -0.0503001 0c-0.00930002,0 -0.0193,-0.0017 -0.0193,-0.00990002 0,-0.0136 0.0224001,-0.0124 0.0387001,-0.0124 0.015,0 0.0379001,0.00390001 0.0379001,0.00390001l0 -0.0239001c0,0 -0.0310001,-0.00420001 -0.0522001,-0.00420001 -0.0302001,0 -0.0693002,0.00990002 -0.0689002,0.0332001 0.000300001,0.0183 0.0204,0.0243001 0.0212001,0.0246001 0,0 -0.0212001,0.0101 -0.0212001,0.0290001 0,0.0291001 0.0402001,0.0449001 0.0793002,0.0449001 0.0446001,0.000300001 0.0755002,-0.0209001 0.0755002,-0.0209001zm-0.1828 0.0188l0 0 0 -0.1269 -0.0484001 0 0 0.0452001 -0.0368001 0 0 -0.02c0,-0.0125 -0.0019,-0.0277001 -0.0453001,-0.0277001 -0.0151,0 -0.0294001,0.0014 -0.0305001,0.00250001l0 0.0252001c0.000300001,-0.000600001 0.0131,-0.00400001 0.0220001,-0.00400001 0.00970002,0 0.00970002,0.00760002 0.00970002,0.0121l0 0.0119c-0.000800002,0 -0.0310001,0.0017 -0.0306001,0.0265001 0,0.0146 0.0135,0.0270001 0.0376001,0.0270001 0.0375001,0 0.0371001,-0.0258001 0.0371001,-0.0258001l0.0368001 0 0 0.0540001 0.0484001 0zm-0.1777 0l0 0 0 -0.1269 -0.0484001 0 0 0.0407001 -0.0291001 0 0 -0.0280001 -0.0421001 0 0 0.0587001c0,0.0141 -0.0136,0.0251001 -0.0361001,0.0251001 -0.0325001,0 -0.0352001,-0.00790002 -0.0399001,-0.0214001 0.00350001,0 0.0516001,-0.0012 0.0519001,-0.0384001 0,-0.0186 -0.0174,-0.0367001 -0.0429001,-0.0367001l-0.0624002 0 0 0.0260001 0.0438001 0c0.00880002,0 0.0166,0.00540001 0.0166,0.0118 0,0.00740002 -0.00660002,0.0102 -0.0147,0.0102l-0.0557001 0 0 0.0271001 0.0181 0c0.000400001,0.00220001 0.000400001,0.0485001 0.0852002,0.0485001 0.0396001,0 0.0791002,-0.0178 0.0791002,-0.0466001l0 -0.00920002 0.0282001 0 0 0.0591001 0.0484001 0zm-0.398501 -0.00840002l0 0c0,-0.0119 -0.00690002,-0.0270001 -0.0290001,-0.0274001 -0.0163,-0.000300001 -0.0283001,0.00820002 -0.0283001,0.0198 0,0.0157 0.0191,0.0175 0.0194,0.0175 0,0.000600001 0.000400001,0.00680002 -0.00390001,0.0116 -0.00570001,0.00700002 -0.0181,0.0124 -0.0181,0.0124l0.00960002 0.0118c0.000800002,0 0.0496001,-0.00250001 0.0503001,-0.0457001zm-0.1153 0.00840002l0 0 0 -0.1269 -0.0485001 0 0 0.1269 0.0485001 0zm-0.0810002 0l0 0 0 -0.1269 -0.0484001 0 0 0.1269 0.0484001 0zm-0.0623002 -0.0865002l0 0c-0.000400001,-0.0223001 -0.0236001,-0.0415001 -0.0538001,-0.0417001 -0.0108,0 -0.0260001,0.00390001 -0.0271001,0.00420001l0 0.0253001c0.0011,-0.001 0.00850002,-0.00470001 0.0151,-0.00530001 0.0136,-0.0011 0.0262001,0.00680002 0.0262001,0.017 0,0.00860002 -0.00910002,0.016 -0.0212001,0.0168 -0.00810002,0.000600001 -0.019,-0.00410001 -0.0201,-0.00500001l0 0.0268001c0.00230001,0.0011 0.0112,0.00560001 0.0240001,0.00560001 0.0356001,0 0.0573001,-0.0203 0.0569001,-0.0437001zm-0.00470001 0.0846002l0 0c-0.00420001,0.0013 -0.0359001,0.00680002 -0.0593001,0.00620002 -0.0526001,-0.0014 -0.0813002,-0.0288001 -0.0813002,-0.0561001l0 -0.0751002 0.0466001 0 0 0.0757002c0,0.0203 0.0146,0.0284001 0.0359001,0.0287001 0.0248001,0.000300001 0.0454001,-0.00620002 0.0484001,-0.00810002l0.00970002 0.0287001zm-0.1731 0.0019l0 0 0 -0.1269 -0.0484001 0 0 0.0375001 -0.0290001 0c0,-0.000800002 -0.00270001,-0.0375001 -0.0460001,-0.0375001 -0.0237001,0 -0.0636002,0 -0.0636002,0l0 0.0260001 0.0484001 0c0.0105,0 0.019,0.00650002 0.019,0.0142 0,0.00760002 -0.00620002,0.0129 -0.0186,0.0129l-0.0631002 0 0 0.0287001 0.0224001 0 0.0148 0.0333001c0.0012,0.00340001 0.0019,0.00680002 0.00610001,0.00900002 0.00390001,0.002 0.00780002,0.00280001 0.0124,0.00280001l0.0705002 0 0 -0.0279001 -0.0433001 0c-0.00280001,0 -0.00540001,-0.000300001 -0.00710002,-0.000800002 -0.00220001,-0.0011 -0.00300001,-0.00340001 -0.00340001,-0.00530001l-0.00350001 -0.0111c0.000400001,0 0.012,0.000300001 0.0271001,-0.00480001 0.0109,-0.00390001 0.0171,-0.0112 0.0179,-0.0121l0.0390001 0 0 0.0620002 0.0484001 0zm-0.222601 0l0 0 0 -0.1269 -0.0484001 0 0 0.1269 0.0484001 0zm-0.292401 -0.432401l-0.0343001 -0.0201c0,0 0.0194,-0.00880002 0.0194,-0.0322001 0,-0.0281001 -0.0253001,-0.0400001 -0.0483001,-0.0400001 -0.0213001,0 -0.0442001,0.00990002 -0.0442001,0.0366001 0,0.0210001 0.0163,0.0312001 0.0167,0.0315001l-0.0386001 0.0128 0.0204 0.0328001 0.0451001 -0.0280001 0.0346001 0.0213001 -0.0608001 0.0254001 0.0215001 0.0301001 0.0685002 -0.0363001 0 0.0339001 0.0364001 0 0 -0.1522 -0.0364001 0 0 0.0844002zm0.292901 0.0475001l0 0 0 -0.1319 -0.0373001 0 -0.0445001 0.0494001c0,-0.0011 -0.0323001,-0.0532001 -0.0609001,-0.0535001 -0.0204,0 -0.0387001,0.0118 -0.0387001,0.0406001 0,0.0267001 0.0134,0.0396001 0.0303001,0.0396001 0.00870002,0 0.0157,-0.00310001 0.0169,-0.00360001l0 -0.0275001c-0.000300001,0 -0.00610001,0.00370001 -0.0105,0.00370001 -0.00490001,0 -0.00990002,-0.000600001 -0.00990002,-0.0132 0,-0.0112 0.00620002,-0.0112 0.0119,-0.0112 0.00960002,0 0.0417001,0.0467001 0.0414001,0.0478001 -0.000600001,0.000400001 -0.0155,0.0226001 -0.0155,0.0406001 0,0.0233001 0.0123,0.0382001 0.0324001,0.0378001 0.0177,0 0.0305001,-0.0115 0.0305001,-0.0392001 0,-0.0159 -0.0108,-0.0379001 -0.0116,-0.0383001l0.0320001 -0.0358001 0 0.0877002c0,0.0301001 -0.0177,0.0525001 -0.0553001,0.0518001 -0.0556001,-0.000700002 -0.0518001,-0.0590001 -0.0518001,-0.0631002l-0.0359001 0c0.000300001,0.00410001 0.000900002,0.0931002 0.0892002,0.0938002 0.0603001,0.000700002 0.0873002,-0.0426001 0.0873002,-0.0755002zm-0.1957 0.0203l0 0 -0.0364001 0 0 -0.1451c0,-0.019 -0.0017,-0.0538001 -0.0233001,-0.0538001 -0.0105,0 -0.0157,0.00910002 -0.0157,0.0192 0,0.0119 0.00600001,0.0184 0.00600001,0.0187l-0.0291001 0c0,0 -0.00830002,-0.0109 -0.00830002,-0.0275001 0,-0.0203 0.0107,-0.0392001 0.0433001,-0.0392001 0.0352001,0 0.0635002,0.0457001 0.0635002,0.0846002l0 0.1431zm-0.1438 -0.1184l0 0c0,0.0152 -0.0149,0.0224001 -0.0152,0.0224001 0,0 -0.0142,-0.00850002 -0.0142,-0.0207001 0,-0.0112 0.00610001,-0.0179 0.0148,-0.0179 0.00990002,0 0.0146,0.00700002 0.0146,0.0162zm2.89351 0.1184l0 -0.1522 -0.0363001 0 0 0.1522 0.0363001 0zm-0.288501 -0.1096l0 0 -0.0172 0 0 -0.0281001 -0.0271001 0 0 0.0426001c0,0.02 -0.00750002,0.0302001 -0.0219001,0.0291001 -0.0128,-0.000600001 -0.0215001,-0.00670002 -0.0229001,-0.0284001 -0.0012,-0.0152 0.002,-0.0376001 0.0125,-0.0376001 0.0122,0 0.0136,-0.000300001 0.0146,0l-0.00420001 -0.0297001c-0.0019,-0.000300001 -0.00460001,-0.0017 -0.0134,-0.001 -0.0261001,0.002 -0.0430001,0.0222001 -0.0424001,0.0660002 0.000600001,0.0406001 0.0218001,0.0636002 0.0608001,0.0636002 0.0268001,0 0.0443001,-0.0207001 0.0443001,-0.0379001l0 -0.0101 0.0169 0 0 0.0811002 0.0364001 0 0 -0.1522 -0.0364001 0 0 0.0426001zm0.0972002 0.1096l0 0 0 -0.1522 -0.0363001 0 0 0.1522 0.0363001 0zm0.0941002 -0.0620002l0 0c-0.00390001,0.0017 -0.00980002,0.00340001 -0.0166,0.00340001 -0.00990002,0 -0.0157,-0.00600001 -0.0157,-0.0148l0 -0.0521001c0,-0.00810002 -0.0015,-0.0136 -0.00680002,-0.0196 -0.00430001,-0.00510001 -0.00790002,-0.00710002 -0.0139,-0.00710002l-0.0311001 0 0 0.0311001 0.0113 0c0.002,0 0.00350001,0 0.00500001,0.0017 0.0014,0.0017 0.000800002,0.00580001 0.000800002,0.00580001l0 0.0426001c0,0.0257001 0.0198,0.0446001 0.0425001,0.0446001 0.00900002,0 0.0187,-0.00270001 0.0245001,-0.00450001l0 0.0309001 0.0364001 0 0 -0.1522 -0.0364001 0 0 0.0902002z"/>
   <path id="_862662176" class="fil2" d="M7.65232 2.74951c0,0.1779 -0.0620002,0.323601 -0.1858,0.437001 -0.1239,0.1099 -0.276601,0.1649 -0.458001,0.1649 -0.0419001,0 -0.0916002,-0.00440001 -0.1492,-0.0131 -0.0576001,-0.00870002 -0.1239,-0.0218001 -0.1989,-0.0392001 -0.1431,-0.0384001 -0.255601,-0.0576001 -0.337601,-0.0576001 -0.1344,0 -0.207601,0.0419001 -0.219801,0.1256 -0.0629002,-0.0576001 -0.0943002,-0.1308 -0.0943002,-0.219801 0,-0.0838002 0.0358001,-0.1509 0.1073,-0.2015 0.0646002,-0.0472001 0.1405,-0.0707002 0.227701,-0.0707002 0.0855002,0 0.1771,0.0314001 0.274801,0.0942002l0.243401 0.1727c0.0907002,0.0628002 0.1727,0.0943002 0.246001,0.0943002 0.0593001,0 0.1169,-0.0236001 0.1728,-0.0707002 0.0558001,-0.0471001 0.0837002,-0.1003 0.0837002,-0.1597 0,-0.1587 -0.1125,-0.269501 -0.337601,-0.332301 -0.0698002,-0.0192 -0.157,-0.0423001 -0.261701,-0.0694002 -0.1047,-0.0270001 -0.227701,-0.0589001 -0.369001,-0.0955002 -0.228601,-0.0977002 -0.342901,-0.258201 -0.342901,-0.481501 0,-0.1379 0.0428001,-0.257401 0.1283,-0.358601 0.1186,-0.1448 0.295701,-0.217201 0.531201,-0.217201 0.0384001,0 0.0855002,0.00260001 0.1414,0.00780002 0.0558001,0.00530001 0.123,0.0123 0.2015,0.0210001 0.0785002,0.00870002 0.1461,0.0157 0.2028,0.0209001 0.0567001,0.00520001 0.1043,0.00790002 0.1426,0.00790002 0.00350001,0 0.0184,-0.00220001 0.0445001,-0.00660002 0.0262001,-0.00430001 0.0620002,-0.0109 0.1073,-0.0196 0.0018,0.0122 0.00310001,0.0231001 0.00400001,0.0327001 0.000800002,0.00960002 0.0013,0.0179 0.0013,0.0249001 0,0.1029 -0.0428001,0.191 -0.1283,0.264301 -0.0872002,0.0715002 -0.1823,0.1073 -0.285201,0.1073 -0.1047,0 -0.1815,-0.0419001 -0.230301,-0.1256 0.0244001,-0.0244001 0.0366001,-0.0489001 0.0366001,-0.0733002 0,-0.0506001 -0.0262001,-0.0907002 -0.0785002,-0.1204 -0.0454001,-0.0244001 -0.0951002,-0.0366001 -0.1492,-0.0366001 -0.230301,0 -0.345401,0.0794002 -0.345401,0.238101 0,0.1152 0.1099,0.1989 0.329701,0.251301 0.355901,0.0837002 0.560101,0.1396 0.612401,0.1675 0.221601,0.1064 0.332401,0.285201 0.332401,0.536501z"/>
   <path id="_8626621761" class="fil2" d="M9.90562 3.32001l-0.659502 0c0.0506001,-0.0401001 0.0724002,-0.0951002 0.0655002,-0.1649l-0.1414 -1.374 -0.418701 1.5389 -0.1963 0 -0.442301 -1.5127 -0.0759002 1.3007c-0.00520001,0.0785002 0.0332001,0.1492 0.1152,0.212001l-0.374301 0c0.0786002,-0.0593001 0.1204,-0.13 0.1257,-0.212001l0.1046 -1.4551c0.00530001,-0.0628002 -0.0218001,-0.1178 -0.0811002,-0.1649l0.581001 0 0.321901 1.0678 0.306201 -1.0678 0.565301 0c-0.0611001,0.0506001 -0.0881002,0.1056 -0.0811002,0.1649l0.1884 1.5022c0.00870002,0.0663002 0.0410001,0.1213 0.0968002,0.1649z"/>
   <path id="_86266217612" class="fil2" d="M11.6198 1.9329c0,0.103 -0.0488001,0.247801 -0.1465,0.434501 -0.0402001,0.0698002 -0.0799002,0.1387 -0.1191,0.206701 -0.0393001,0.0681002 -0.0790002,0.137 -0.1191,0.206801 -0.0907002,0.1587 -0.1361,0.291301 -0.1361,0.397801 0,0.0558001 0.0244001,0.1029 0.0733002,0.1413l-0.659502 0c0.0453001,-0.0366001 0.0680002,-0.0785002 0.0680002,-0.1256 0,-0.0122 -0.00260001,-0.0253001 -0.00780002,-0.0393001l-0.552201 -1.5022c-0.0297001,-0.0750002 -0.0637002,-0.13 -0.1021,-0.1649l0.662102 0c-0.0418001,0.0349001 -0.0628002,0.0759002 -0.0628002,0.123 0,0.0157 0.00260001,0.0297001 0.00790002,0.0419001l0.478901 1.3216c0.00870002,-0.0349001 0.0253001,-0.0881002 0.0497001,-0.1596 0.0244001,-0.0715002 0.0585001,-0.1614 0.1021,-0.269601 0.0628002,-0.1587 0.0942002,-0.308801 0.0942002,-0.450101 0,-0.1047 -0.0244001,-0.1972 -0.0733002,-0.277401 -0.0610001,-0.0942002 -0.1396,-0.1413 -0.235501,-0.1413 -0.0471001,0 -0.0811002,0.00520001 -0.1021,0.0157 0.0681002,-0.1745 0.1832,-0.261701 0.345501,-0.261701 0.1256,0 0.231201,0.0532001 0.316601,0.1596 0.0786002,0.0994002 0.1178,0.213701 0.1178,0.342801z"/>
   <path id="_862662176123" class="fil2" d="M13.3524 2.74951c0,0.1779 -0.0620002,0.323601 -0.1858,0.437001 -0.1239,0.1099 -0.276601,0.1649 -0.458001,0.1649 -0.0419001,0 -0.0916002,-0.00440001 -0.1492,-0.0131 -0.0576001,-0.00870002 -0.1239,-0.0218001 -0.1989,-0.0392001 -0.1431,-0.0384001 -0.255601,-0.0576001 -0.337601,-0.0576001 -0.1344,0 -0.207601,0.0419001 -0.219801,0.1256 -0.0629002,-0.0576001 -0.0943002,-0.1308 -0.0943002,-0.219801 0,-0.0838002 0.0358001,-0.1509 0.1073,-0.2015 0.0646002,-0.0472001 0.1405,-0.0707002 0.227701,-0.0707002 0.0855002,0 0.1771,0.0314001 0.274801,0.0942002l0.243401 0.1727c0.0907002,0.0628002 0.1727,0.0943002 0.246001,0.0943002 0.0593001,0 0.1169,-0.0236001 0.1728,-0.0707002 0.0558001,-0.0471001 0.0837002,-0.1003 0.0837002,-0.1597 0,-0.1587 -0.1125,-0.269501 -0.337601,-0.332301 -0.0698002,-0.0192 -0.157,-0.0423001 -0.261701,-0.0694002 -0.1047,-0.0270001 -0.227701,-0.0589001 -0.369001,-0.0955002 -0.228601,-0.0977002 -0.342901,-0.258201 -0.342901,-0.481501 0,-0.1379 0.0428001,-0.257401 0.1283,-0.358601 0.1186,-0.1448 0.295701,-0.217201 0.531201,-0.217201 0.0384001,0 0.0855002,0.00260001 0.1414,0.00780002 0.0558001,0.00530001 0.123,0.0123 0.2015,0.0210001 0.0785002,0.00870002 0.1461,0.0157 0.2028,0.0209001 0.0567001,0.00520001 0.1043,0.00790002 0.1426,0.00790002 0.00350001,0 0.0184,-0.00220001 0.0445001,-0.00660002 0.0262001,-0.00430001 0.0620002,-0.0109 0.1073,-0.0196 0.0018,0.0122 0.00310001,0.0231001 0.00400001,0.0327001 0.000800002,0.00960002 0.0013,0.0179 0.0013,0.0249001 0,0.1029 -0.0428001,0.191 -0.1283,0.264301 -0.0872002,0.0715002 -0.1823,0.1073 -0.285201,0.1073 -0.1047,0 -0.1815,-0.0419001 -0.230301,-0.1256 0.0244001,-0.0244001 0.0366001,-0.0489001 0.0366001,-0.0733002 0,-0.0506001 -0.0262001,-0.0907002 -0.0785002,-0.1204 -0.0454001,-0.0244001 -0.0951002,-0.0366001 -0.1492,-0.0366001 -0.230301,0 -0.345401,0.0794002 -0.345401,0.238101 0,0.1152 0.1099,0.1989 0.329701,0.251301 0.355901,0.0837002 0.560101,0.1396 0.612401,0.1675 0.221601,0.1064 0.332401,0.285201 0.332401,0.536501z"/>
   <path id="_862662128" class="fil0" d="M15.6422 2.79351c0,0.1573 -0.0572001,0.280001 -0.1711,0.368001 -0.1143,0.0881002 -0.269101,0.1323 -0.464901,0.1323 -0.211501,0 -0.374701,-0.0275001 -0.488601,-0.0822002l0 -0.2003c0.0730002,0.0309001 0.1531,0.0555001 0.239501,0.0735002 0.0864002,0.0179 0.1719,0.0267001 0.256701,0.0267001 0.1385,0 0.242801,-0.0263001 0.312901,-0.0789002 0.0701002,-0.0526001 0.1052,-0.1256 0.1052,-0.219501 0,-0.0618001 -0.0125,-0.1127 -0.0372001,-0.1523 -0.0250001,-0.0392001 -0.0667002,-0.0760002 -0.1247,-0.1094 -0.0584001,-0.0333001 -0.1469,-0.0713002 -0.265801,-0.1135 -0.1666,-0.0596001 -0.285501,-0.1302 -0.356401,-0.211501 -0.0714002,-0.0814002 -0.1073,-0.1878 -0.1073,-0.319301 0,-0.1377 0.0518001,-0.247001 0.1553,-0.328801 0.1035,-0.0814002 0.240301,-0.1223 0.411001,-0.1223 0.1774,0 0.340901,0.0326001 0.489901,0.0981002l-0.0647002 0.1807c-0.1473,-0.0618001 -0.290801,-0.0927002 -0.430201,-0.0927002 -0.1102,0 -0.1961,0.0234001 -0.257901,0.0706002 -0.0622002,0.0475001 -0.0930002,0.1131 -0.0930002,0.1969 0,0.0622002 0.0112,0.1127 0.0342001,0.1524 0.0229001,0.0396001 0.0613001,0.0759002 0.1156,0.1089 0.0542001,0.0329001 0.1373,0.0692002 0.248701,0.1093 0.1873,0.0668002 0.316701,0.1385 0.386801,0.214901 0.0705002,0.0768002 0.106,0.1761 0.106,0.298401z"/>
   <path id="_8626621281" class="fil0" d="M17.0715 3.26921l-0.245801 -0.786202c-0.0154,-0.0480001 -0.0447001,-0.1573 -0.0868002,-0.327601l-0.01 0c-0.0326001,0.1427 -0.0609001,0.252901 -0.0856002,0.330101l-0.252801 0.783702 -0.235001 0 -0.365501 -1.34 0.212801 0c0.0864002,0.336801 0.1523,0.593001 0.1974,0.769102 0.0455001,0.1761 0.0713002,0.294601 0.0776002,0.355601l0.01 0c0.00880002,-0.0463001 0.0234001,-0.1064 0.0434001,-0.1803 0.02,-0.0739002 0.0371001,-0.1323 0.0517001,-0.1753l0.245801 -0.769102 0.220401 0 0.239501 0.769102c0.0455001,0.1402 0.0764002,0.257901 0.0926002,0.353501l0.0101 0c0.00330001,-0.0296001 0.0121,-0.0747002 0.0262001,-0.1361 0.0142,-0.0609001 0.0994002,-0.389701 0.255001,-0.986502l0.210301 0 -0.370501 1.34 -0.240801 0z"/>
   <path id="_86266212812" class="fil0" d="M18.7486 3.26921l-0.0401001 -0.1907 -0.01 0c-0.0668002,0.0839002 -0.1335,0.1406 -0.1999,0.1707 -0.0663002,0.0296001 -0.1494,0.0446001 -0.248701,0.0446001 -0.1327,0 -0.237001,-0.0342001 -0.312601,-0.1031 -0.0751002,-0.0684002 -0.113,-0.1656 -0.113,-0.292101 0,-0.270401 0.216501,-0.412301 0.649302,-0.425201l0.227401 -0.00750002 0 -0.0830002c0,-0.1052 -0.0225001,-0.1828 -0.0680002,-0.232901 -0.0451001,-0.0501001 -0.1173,-0.0751002 -0.217001,-0.0751002 -0.1114,0 -0.237901,0.0342001 -0.378901,0.1026l-0.0622002 -0.1552c0.0659002,-0.0359001 0.1381,-0.0643002 0.217001,-0.0843002 0.0785002,-0.0204 0.1573,-0.0309001 0.236601,-0.0309001 0.1594,0 0.277901,0.0355001 0.355101,0.1064 0.0768002,0.0710002 0.1156,0.1849 0.1156,0.341401l0 0.914302 -0.1506 0zm-0.458201 -0.1431c0.126,0 0.225301,-0.0347001 0.297501,-0.1039 0.0722002,-0.0693002 0.1081,-0.1661 0.1081,-0.290901l0 -0.121 -0.2028 0.00830002c-0.1615,0.00590001 -0.277901,0.0309001 -0.348901,0.0756002 -0.0713002,0.0442001 -0.1072,0.1135 -0.1072,0.206901 0,0.0735002 0.0221001,0.1294 0.0667002,0.1678 0.0443001,0.0380001 0.1065,0.0572001 0.1866,0.0572001z"/>
   <path id="_862662128123" class="fil0" d="M21.025 3.26921l0 -0.871702c0,-0.1069 -0.0225001,-0.187 -0.0684002,-0.240401 -0.0455001,-0.0530001 -0.1164,-0.0797002 -0.212401,-0.0797002 -0.1265,0 -0.219901,0.0359001 -0.280001,0.1085 -0.0605001,0.0726002 -0.0906002,0.1844 -0.0906002,0.335101l0 0.748202 -0.2028 0 0 -0.871702c0,-0.1069 -0.0229001,-0.187 -0.0688002,-0.240401 -0.0455001,-0.0530001 -0.1169,-0.0797002 -0.213701,-0.0797002 -0.1273,0 -0.220301,0.0380001 -0.279601,0.1139 -0.0588001,0.0764002 -0.0885002,0.2012 -0.0885002,0.374701l0 0.703202 -0.2028 0 0 -1.34 0.1649 0 0.0329001 0.1837 0.01 0c0.0380001,-0.0656002 0.0923002,-0.1165 0.162,-0.1532 0.0696002,-0.0367001 0.1477,-0.0551001 0.234101,-0.0551001 0.209401,0 0.346301,0.0760002 0.410601,0.227501l0.01 0c0.0396001,-0.0701002 0.0976002,-0.1252 0.1736,-0.1661 0.0755002,-0.0409001 0.1619,-0.0614001 0.259101,-0.0614001 0.1515,0 0.265001,0.0393001 0.340601,0.1169 0.0751002,0.0780002 0.113,0.2024 0.113,0.373501l0 0.874202 -0.2032 0z"/>
   <path id="_8626621281234" class="fil0" d="M21.8492 3.26921l-0.2028 0 0 -1.34 0.2028 0 0 1.34zm-0.219901 -1.703c0,-0.0463001 0.0113,-0.0805002 0.0342001,-0.1022 0.0226001,-0.0213001 0.0514001,-0.0322001 0.0856002,-0.0322001 0.0325001,0 0.0605001,0.0109 0.0843002,0.0330001 0.0238001,0.0221001 0.0354001,0.0559001 0.0354001,0.1014 0,0.0455001 -0.0116,0.0797002 -0.0354001,0.1022 -0.0238001,0.0222001 -0.0518001,0.0334001 -0.0843002,0.0334001 -0.0342001,0 -0.0630002,-0.0112 -0.0856002,-0.0334001 -0.0229001,-0.0225001 -0.0342001,-0.0567001 -0.0342001,-0.1022z"/>
   <path id="_86266212812345" class="fil0" d="M23.1967 3.26921l0 -0.866702c0,-0.1094 -0.0250001,-0.1907 -0.0747002,-0.244601 -0.0496001,-0.0538001 -0.1272,-0.0805002 -0.233201,-0.0805002 -0.1402,0 -0.242901,0.0375001 -0.308401,0.1135 -0.0651002,0.0759002 -0.0977002,0.2007 -0.0977002,0.375101l0 0.703202 -0.2028 0 0 -1.34 0.1649 0 0.0329001 0.1837 0.01 0c0.0414001,-0.0664002 0.0998002,-0.1173 0.1749,-0.1536 0.0747002,-0.0363001 0.1586,-0.0547001 0.250401,-0.0547001 0.1615,0 0.282901,0.0393001 0.364301,0.1169 0.0818002,0.0780002 0.1222,0.2024 0.1222,0.373501l0 0.874202 -0.2028 0z"/>
   <path id="_862662128123456" class="fil0" d="M24.6406 3.26921l-0.0401001 -0.1907 -0.01 0c-0.0668002,0.0839002 -0.1335,0.1406 -0.1999,0.1707 -0.0663002,0.0296001 -0.1494,0.0446001 -0.248701,0.0446001 -0.1327,0 -0.237001,-0.0342001 -0.312601,-0.1031 -0.0751002,-0.0684002 -0.113,-0.1656 -0.113,-0.292101 0,-0.270401 0.216501,-0.412301 0.649302,-0.425201l0.227401 -0.00750002 0 -0.0830002c0,-0.1052 -0.0225001,-0.1828 -0.0680002,-0.232901 -0.0451001,-0.0501001 -0.1173,-0.0751002 -0.217001,-0.0751002 -0.1114,0 -0.237901,0.0342001 -0.378901,0.1026l-0.0622002 -0.1552c0.0659002,-0.0359001 0.1381,-0.0643002 0.217001,-0.0843002 0.0785002,-0.0204 0.1573,-0.0309001 0.236601,-0.0309001 0.1594,0 0.277901,0.0355001 0.355101,0.1064 0.0768002,0.0710002 0.1156,0.1849 0.1156,0.341401l0 0.914302 -0.1506 0zm-0.458201 -0.1431c0.126,0 0.225301,-0.0347001 0.297501,-0.1039 0.0722002,-0.0693002 0.1081,-0.1661 0.1081,-0.290901l0 -0.121 -0.2028 0.00830002c-0.1615,0.00590001 -0.277901,0.0309001 -0.348901,0.0756002 -0.0713002,0.0442001 -0.1072,0.1135 -0.1072,0.206901 0,0.0735002 0.0221001,0.1294 0.0667002,0.1678 0.0443001,0.0380001 0.1065,0.0572001 0.1866,0.0572001z"/>
   <path id="_8626621281234567" class="fil0" d="M25.8203 1.9046c0.0596001,0 0.113,0.00500001 0.1602,0.0151l-0.0280001 0.1882c-0.0555001,-0.0126 -0.1043,-0.0184 -0.1469,-0.0184 -0.108,0 -0.2011,0.0438001 -0.277901,0.1319 -0.0772002,0.0880002 -0.1156,0.1978 -0.1156,0.328801l0 0.719002 -0.2028 0 0 -1.34 0.1674 0 0.0233001 0.248301 0.00960002 0c0.0497001,-0.0872002 0.1098,-0.1544 0.1799,-0.2019 0.0701002,-0.0472001 0.1469,-0.0710002 0.230801,-0.0710002z"/>
   <path id="_86266212812345678" class="fil0" d="M27.005 3.26921l-0.0401001 -0.1907 -0.01 0c-0.0668002,0.0839002 -0.1335,0.1406 -0.1999,0.1707 -0.0663002,0.0296001 -0.1494,0.0446001 -0.248701,0.0446001 -0.1327,0 -0.237001,-0.0342001 -0.312601,-0.1031 -0.0751002,-0.0684002 -0.113,-0.1656 -0.113,-0.292101 0,-0.270401 0.216501,-0.412301 0.649302,-0.425201l0.227401 -0.00750002 0 -0.0830002c0,-0.1052 -0.0225001,-0.1828 -0.0680002,-0.232901 -0.0451001,-0.0501001 -0.1173,-0.0751002 -0.217001,-0.0751002 -0.1114,0 -0.237901,0.0342001 -0.378901,0.1026l-0.0622002 -0.1552c0.0659002,-0.0359001 0.1381,-0.0643002 0.217001,-0.0843002 0.0785002,-0.0204 0.1573,-0.0309001 0.236601,-0.0309001 0.1594,0 0.277901,0.0355001 0.355101,0.1064 0.0768002,0.0710002 0.1156,0.1849 0.1156,0.341401l0 0.914302 -0.1506 0zm-0.458201 -0.1431c0.126,0 0.225301,-0.0347001 0.297501,-0.1039 0.0722002,-0.0693002 0.1081,-0.1661 0.1081,-0.290901l0 -0.121 -0.2028 0.00830002c-0.1615,0.00590001 -0.277901,0.0309001 -0.348901,0.0756002 -0.0713002,0.0442001 -0.1072,0.1135 -0.1072,0.206901 0,0.0735002 0.0221001,0.1294 0.0667002,0.1678 0.0443001,0.0380001 0.1065,0.0572001 0.1866,0.0572001z"/>
   <path id="_862662128123456789" class="fil0" d="M27.3609 1.9292l0.217401 0 0.293401 0.764102c0.0647002,0.1745 0.1043,0.300501 0.1202,0.377701l0.00960002 0c0.0104,-0.0413001 0.0329001,-0.1127 0.0667002,-0.213301 0.0338001,-0.1005 0.1444,-0.410201 0.331801,-0.928502l0.217801 0 -0.575901 1.5257c-0.0571001,0.1511 -0.1239,0.257901 -0.1998,0.320901 -0.0764002,0.0634002 -0.1699,0.0947002 -0.280901,0.0947002 -0.0618001,0 -0.1231,-0.00660002 -0.1832,-0.0204l0 -0.1628c0.0447001,0.00960002 0.0947002,0.0146 0.1502,0.0146 0.1394,0 0.238701,-0.0780002 0.298401,-0.234501l0.0747002 -0.1907 -0.540401 -1.3475z"/>
   <path id="_86266212812345678910" class="fil0" d="M29.659 3.26921l-0.0401001 -0.1907 -0.01 0c-0.0668002,0.0839002 -0.1335,0.1406 -0.1999,0.1707 -0.0663002,0.0296001 -0.1494,0.0446001 -0.248701,0.0446001 -0.1327,0 -0.237001,-0.0342001 -0.312601,-0.1031 -0.0751002,-0.0684002 -0.113,-0.1656 -0.113,-0.292101 0,-0.270401 0.216501,-0.412301 0.649302,-0.425201l0.227401 -0.00750002 0 -0.0830002c0,-0.1052 -0.0225001,-0.1828 -0.0680002,-0.232901 -0.0451001,-0.0501001 -0.1173,-0.0751002 -0.217001,-0.0751002 -0.1114,0 -0.237901,0.0342001 -0.378901,0.1026l-0.0622002 -0.1552c0.0659002,-0.0359001 0.1381,-0.0643002 0.217001,-0.0843002 0.0785002,-0.0204 0.1573,-0.0309001 0.236601,-0.0309001 0.1594,0 0.277901,0.0355001 0.355101,0.1064 0.0768002,0.0710002 0.1156,0.1849 0.1156,0.341401l0 0.914302 -0.1506 0zm-0.458201 -0.1431c0.126,0 0.225301,-0.0347001 0.297501,-0.1039 0.0722002,-0.0693002 0.1081,-0.1661 0.1081,-0.290901l0 -0.121 -0.2028 0.00830002c-0.1615,0.00590001 -0.277901,0.0309001 -0.348901,0.0756002 -0.0713002,0.0442001 -0.1072,0.1135 -0.1072,0.206901 0,0.0735002 0.0221001,0.1294 0.0667002,0.1678 0.0443001,0.0380001 0.1065,0.0572001 0.1866,0.0572001z"/>
   <path id="_8626621281234567891011" class="fil0" d="M31.1445 3.26921l0 -0.866702c0,-0.1094 -0.0250001,-0.1907 -0.0747002,-0.244601 -0.0496001,-0.0538001 -0.1272,-0.0805002 -0.233201,-0.0805002 -0.1402,0 -0.242901,0.0375001 -0.308401,0.1135 -0.0651002,0.0759002 -0.0977002,0.2007 -0.0977002,0.375101l0 0.703202 -0.2028 0 0 -1.34 0.1649 0 0.0329001 0.1837 0.01 0c0.0414001,-0.0664002 0.0998002,-0.1173 0.1749,-0.1536 0.0747002,-0.0363001 0.1586,-0.0547001 0.250401,-0.0547001 0.1615,0 0.282901,0.0393001 0.364301,0.1169 0.0818002,0.0780002 0.1222,0.2024 0.1222,0.373501l0 0.874202 -0.2028 0z"/>
   <path id="_862662128123456789101112" class="fil0" d="M33.4543 2.79351c0,0.1573 -0.0572001,0.280001 -0.1711,0.368001 -0.1143,0.0881002 -0.269101,0.1323 -0.464901,0.1323 -0.211501,0 -0.374701,-0.0275001 -0.488601,-0.0822002l0 -0.2003c0.0730002,0.0309001 0.1531,0.0555001 0.239501,0.0735002 0.0864002,0.0179 0.1719,0.0267001 0.256701,0.0267001 0.1385,0 0.242801,-0.0263001 0.312901,-0.0789002 0.0701002,-0.0526001 0.1052,-0.1256 0.1052,-0.219501 0,-0.0618001 -0.0125,-0.1127 -0.0372001,-0.1523 -0.0250001,-0.0392001 -0.0667002,-0.0760002 -0.1247,-0.1094 -0.0584001,-0.0333001 -0.1469,-0.0713002 -0.265801,-0.1135 -0.1666,-0.0596001 -0.285501,-0.1302 -0.356401,-0.211501 -0.0714002,-0.0814002 -0.1073,-0.1878 -0.1073,-0.319301 0,-0.1377 0.0518001,-0.247001 0.1553,-0.328801 0.1035,-0.0814002 0.240301,-0.1223 0.411001,-0.1223 0.1774,0 0.340901,0.0326001 0.489901,0.0981002l-0.0647002 0.1807c-0.1473,-0.0618001 -0.290801,-0.0927002 -0.430201,-0.0927002 -0.1102,0 -0.1961,0.0234001 -0.257901,0.0706002 -0.0622002,0.0475001 -0.0930002,0.1131 -0.0930002,0.1969 0,0.0622002 0.0112,0.1127 0.0342001,0.1524 0.0229001,0.0396001 0.0613001,0.0759002 0.1156,0.1089 0.0542001,0.0329001 0.1373,0.0692002 0.248701,0.1093 0.1873,0.0668002 0.316701,0.1385 0.386801,0.214901 0.0705002,0.0768002 0.106,0.1761 0.106,0.298401z"/>
   <path id="_86266212812345678910111213" class="fil0" d="M34.6132 3.26921l-0.0401001 -0.1907 -0.01 0c-0.0668002,0.0839002 -0.1335,0.1406 -0.1999,0.1707 -0.0663002,0.0296001 -0.1494,0.0446001 -0.248701,0.0446001 -0.1327,0 -0.237001,-0.0342001 -0.312601,-0.1031 -0.0751002,-0.0684002 -0.113,-0.1656 -0.113,-0.292101 0,-0.270401 0.216501,-0.412301 0.649302,-0.425201l0.227401 -0.00750002 0 -0.0830002c0,-0.1052 -0.0225001,-0.1828 -0.0680002,-0.232901 -0.0451001,-0.0501001 -0.1173,-0.0751002 -0.217001,-0.0751002 -0.1114,0 -0.237901,0.0342001 -0.378901,0.1026l-0.0622002 -0.1552c0.0659002,-0.0359001 0.1381,-0.0643002 0.217001,-0.0843002 0.0785002,-0.0204 0.1573,-0.0309001 0.236601,-0.0309001 0.1594,0 0.277901,0.0355001 0.355101,0.1064 0.0768002,0.0710002 0.1156,0.1849 0.1156,0.341401l0 0.914302 -0.1506 0zm-0.458201 -0.1431c0.126,0 0.225301,-0.0347001 0.297501,-0.1039 0.0722002,-0.0693002 0.1081,-0.1661 0.1081,-0.290901l0 -0.121 -0.2028 0.00830002c-0.1615,0.00590001 -0.277901,0.0309001 -0.348901,0.0756002 -0.0713002,0.0442001 -0.1072,0.1135 -0.1072,0.206901 0,0.0735002 0.0221001,0.1294 0.0667002,0.1678 0.0443001,0.0380001 0.1065,0.0572001 0.1866,0.0572001z"/>
   <path id="_8626621281234567891011121314" class="fil0" d="M36.0987 3.26921l0 -0.866702c0,-0.1094 -0.0250001,-0.1907 -0.0747002,-0.244601 -0.0496001,-0.0538001 -0.1272,-0.0805002 -0.233201,-0.0805002 -0.1402,0 -0.242901,0.0375001 -0.308401,0.1135 -0.0651002,0.0759002 -0.0977002,0.2007 -0.0977002,0.375101l0 0.703202 -0.2028 0 0 -1.34 0.1649 0 0.0329001 0.1837 0.01 0c0.0414001,-0.0664002 0.0998002,-0.1173 0.1749,-0.1536 0.0747002,-0.0363001 0.1586,-0.0547001 0.250401,-0.0547001 0.1615,0 0.282901,0.0393001 0.364301,0.1169 0.0818002,0.0780002 0.1222,0.2024 0.1222,0.373501l0 0.874202 -0.2028 0z"/>
   <path id="_862662128123456789101112131415" class="fil0" d="M37.5831 2.90361c0,0.1248 -0.0464001,0.220801 -0.1394,0.288401 -0.0931002,0.0680002 -0.223301,0.1018 -0.391501,0.1018 -0.1773,0 -0.315801,-0.0284001 -0.415601,-0.0847002l0 -0.1882c0.0647002,0.0326001 0.1336,0.0584001 0.207401,0.0772002 0.0739002,0.0188 0.1448,0.0280001 0.213301,0.0280001 0.106,0 0.1873,-0.0167 0.244501,-0.0505001 0.0572001,-0.0338001 0.0855002,-0.0856002 0.0855002,-0.1548 0,-0.0522001 -0.0225001,-0.0969002 -0.0676002,-0.134 -0.0454001,-0.0371001 -0.1335,-0.0810002 -0.264901,-0.1314 -0.1248,-0.0464001 -0.213301,-0.0868002 -0.265901,-0.1215 -0.0525001,-0.0346001 -0.0918002,-0.0738002 -0.1172,-0.1181 -0.0259001,-0.0438001 -0.0384001,-0.0964002 -0.0384001,-0.1577 0,-0.1094 0.0442001,-0.1953 0.1331,-0.258301 0.0889002,-0.0635002 0.210701,-0.0952002 0.365601,-0.0952002 0.1443,0 0.285001,0.0297001 0.423101,0.0881002l-0.0722002 0.1652c-0.1348,-0.0555001 -0.256601,-0.0830002 -0.365601,-0.0830002 -0.0963002,0 -0.169,0.015 -0.217801,0.0451001 -0.0488001,0.0300001 -0.0734002,0.0717002 -0.0734002,0.1247 0,0.0359001 0.00920002,0.0664002 0.0275001,0.0918002 0.0184,0.0251001 0.0480001,0.0493001 0.0889002,0.0718002 0.0405001,0.0230001 0.1189,0.0559001 0.234501,0.0993002 0.159,0.0576001 0.266301,0.116 0.322201,0.1749 0.0559001,0.0584001 0.0839002,0.1323 0.0839002,0.221101z"/>
   <path id="_86266212812345678910111213141516" class="fil0" d="M38.3459 3.12611c0.0359001,0 0.0705002,-0.00250001 0.1039,-0.00800002 0.0334001,-0.00540001 0.0596001,-0.0108 0.0793002,-0.0162l0 0.1552c-0.0222001,0.0104 -0.0543001,0.0192 -0.0973002,0.0263001 -0.0425001,0.00670002 -0.0813002,0.0104 -0.1156,0.0104 -0.259101,0 -0.388501,-0.1369 -0.388501,-0.409801l0 -0.797002 -0.1919 0 0 -0.0977002 0.1919 -0.0847002 0.0856002 -0.285801 0.1172 0 0 0.310401 0.389001 0 0 0.1578 -0.389001 0 0 0.788702c0,0.0805002 0.0192,0.1423 0.0576001,0.1857 0.0384001,0.0430001 0.0910002,0.0647002 0.1578,0.0647002z"/>
   <path id="_8626621281234567891011121314151617" class="fil0" d="M39.7137 3.26921l0 -0.866702c0,-0.1094 -0.0250001,-0.1907 -0.0747002,-0.244601 -0.0496001,-0.0538001 -0.1272,-0.0805002 -0.233201,-0.0805002 -0.1411,0 -0.244201,0.0380001 -0.308801,0.1147 -0.0647002,0.0768002 -0.0973002,0.202 -0.0973002,0.376501l0 0.700602 -0.2028 0 0 -1.9025 0.2028 0 0 0.575901c0,0.0693002 -0.00330001,0.1269 -0.00960002,0.1723l0.0121 0c0.0401001,-0.0642002 0.0969002,-0.1151 0.1707,-0.1518 0.0735002,-0.0372001 0.1578,-0.0560001 0.252101,-0.0560001 0.164,0 0.287101,0.0393001 0.368901,0.1169 0.0817002,0.0780002 0.1226,0.2015 0.1226,0.371001l0 0.874202 -0.2028 0z"/>
   <path id="_862662128123456789101112131415161718" class="fil0" d="M41.1576 3.26921l-0.0401001 -0.1907 -0.01 0c-0.0668002,0.0839002 -0.1335,0.1406 -0.1999,0.1707 -0.0663002,0.0296001 -0.1494,0.0446001 -0.248701,0.0446001 -0.1327,0 -0.237001,-0.0342001 -0.312601,-0.1031 -0.0751002,-0.0684002 -0.113,-0.1656 -0.113,-0.292101 0,-0.270401 0.216501,-0.412301 0.649302,-0.425201l0.227401 -0.00750002 0 -0.0830002c0,-0.1052 -0.0225001,-0.1828 -0.0680002,-0.232901 -0.0451001,-0.0501001 -0.1173,-0.0751002 -0.217001,-0.0751002 -0.1114,0 -0.237901,0.0342001 -0.378901,0.1026l-0.0622002 -0.1552c0.0659002,-0.0359001 0.1381,-0.0643002 0.217001,-0.0843002 0.0785002,-0.0204 0.1573,-0.0309001 0.236601,-0.0309001 0.1594,0 0.277901,0.0355001 0.355101,0.1064 0.0768002,0.0710002 0.1156,0.1849 0.1156,0.341401l0 0.914302 -0.1506 0zm-0.458201 -0.1431c0.126,0 0.225301,-0.0347001 0.297501,-0.1039 0.0722002,-0.0693002 0.1081,-0.1661 0.1081,-0.290901l0 -0.121 -0.2028 0.00830002c-0.1615,0.00590001 -0.277901,0.0309001 -0.348901,0.0756002 -0.0713002,0.0442001 -0.1072,0.1135 -0.1072,0.206901 0,0.0735002 0.0221001,0.1294 0.0667002,0.1678 0.0443001,0.0380001 0.1065,0.0572001 0.1866,0.0572001z"/>
  </g>
 </g>
</svg>
